<?xml version="1.0" encoding="UTF-8" standalone="no"?>
<!-- Created with Inkscape (http://www.inkscape.org/) -->

<svg
   xmlns:ns1="http://www.iki.fi/pav/software/textext/"
   xmlns:dc="http://purl.org/dc/elements/1.1/"
   xmlns:cc="http://creativecommons.org/ns#"
   xmlns:rdf="http://www.w3.org/1999/02/22-rdf-syntax-ns#"
   xmlns:svg="http://www.w3.org/2000/svg"
   xmlns="http://www.w3.org/2000/svg"
   xmlns:sodipodi="http://sodipodi.sourceforge.net/DTD/sodipodi-0.dtd"
   xmlns:inkscape="http://www.inkscape.org/namespaces/inkscape"
   width="68.82444mm"
   height="45.727825mm"
   viewBox="0 0 68.82444 45.727825"
   version="1.1"
   id="svg8"
   inkscape:version="0.92.4 (unknown)"
   sodipodi:docname="relationships_problems.svg">
  <defs
     id="defs2">
    <marker
       inkscape:stockid="Arrow1Lend"
       orient="auto"
       refY="0"
       refX="0"
       id="Arrow1Lend"
       style="overflow:visible"
       inkscape:isstock="true">
      <path
         id="path1971"
         d="M 0,0 5,-5 -12.5,0 5,5 Z"
         style="fill:#000000;fill-opacity:1;fill-rule:evenodd;stroke:#000000;stroke-width:1.00000003pt;stroke-opacity:1"
         transform="matrix(-0.8,0,0,-0.8,-10,0)"
         inkscape:connector-curvature="0" />
    </marker>
    <marker
       inkscape:stockid="Arrow1Lend"
       orient="auto"
       refY="0"
       refX="0"
       id="Arrow1Lend-6"
       style="overflow:visible"
       inkscape:isstock="true">
      <path
         inkscape:connector-curvature="0"
         id="path1971-9"
         d="M 0,0 5,-5 -12.5,0 5,5 Z"
         style="fill:#000000;fill-opacity:1;fill-rule:evenodd;stroke:#000000;stroke-width:1.00000003pt;stroke-opacity:1"
         transform="matrix(-0.8,0,0,-0.8,-10,0)" />
    </marker>
    <marker
       inkscape:stockid="Arrow1Lend"
       orient="auto"
       refY="0"
       refX="0"
       id="Arrow1Lend-6-0"
       style="overflow:visible"
       inkscape:isstock="true">
      <path
         inkscape:connector-curvature="0"
         id="path1971-9-7"
         d="M 0,0 5,-5 -12.5,0 5,5 Z"
         style="fill:#000000;fill-opacity:1;fill-rule:evenodd;stroke:#000000;stroke-width:1.00000003pt;stroke-opacity:1"
         transform="matrix(-0.8,0,0,-0.8,-10,0)" />
    </marker>
  </defs>
  <sodipodi:namedview
     id="base"
     pagecolor="#ffffff"
     bordercolor="#666666"
     borderopacity="1.0"
     inkscape:pageopacity="0.0"
     inkscape:pageshadow="2"
     inkscape:zoom="3.959798"
     inkscape:cx="88.148632"
     inkscape:cy="63.769779"
     inkscape:document-units="mm"
     inkscape:current-layer="layer1"
     showgrid="false"
     inkscape:window-width="2493"
     inkscape:window-height="1376"
     inkscape:window-x="67"
     inkscape:window-y="27"
     inkscape:window-maximized="1"
     fit-margin-top="0"
     fit-margin-left="0"
     fit-margin-right="0"
     fit-margin-bottom="0" />
  <metadata
     id="metadata5">
    <rdf:RDF>
      <cc:Work
         rdf:about="">
        <dc:format>image/svg+xml</dc:format>
        <dc:type
           rdf:resource="http://purl.org/dc/dcmitype/StillImage" />
        <dc:title />
      </cc:Work>
    </rdf:RDF>
  </metadata>
  <g
     inkscape:label="Layer 1"
     inkscape:groupmode="layer"
     id="layer1"
     transform="translate(-45.593932,-113.62082)">
    <g
       id="g978"
       ns1:jacobian_sqrt="0.441769"
       ns1:alignment="middle center"
       ns1:scale="1.25225755532"
       ns1:preamble="/home/jtorde/.config/inkscape/extensions/textext/default_packages.tex"
       ns1:text="Problem 1"
       ns1:pdfconverter="pdf2svg"
       ns1:texconverter="pdflatex"
       ns1:version="0.11.0"
       transform="matrix(0.441769,0,0,0.441769,-17.320698,92.170074)">
      <g
         id="g976">
        <g
           id="g970"
           style="fill:#000000;fill-opacity:1">
          <path
             id="path956"
             transform="translate(148.712,134.765)"
             d="m 2.265625,-3.15625 h 1.6875 c 1.1875,0 2.265625,-0.796875 2.265625,-1.796875 C 6.21875,-5.9375 5.234375,-6.8125 3.875,-6.8125 H 0.34375 V -6.5 h 0.25 c 0.765625,0 0.78125,0.109375 0.78125,0.46875 v 5.25 c 0,0.359375 -0.015625,0.46875 -0.78125,0.46875 h -0.25 V 0 c 0.359375,-0.03125 1.09375,-0.03125 1.46875,-0.03125 0.375,0 1.125,0 1.484375,0.03125 v -0.3125 h -0.25 c -0.765625,0 -0.78125,-0.109375 -0.78125,-0.46875 z m -0.03125,-0.25 v -2.6875 C 2.234375,-6.4375 2.25,-6.5 2.71875,-6.5 h 0.890625 c 1.578125,0 1.578125,1.0625 1.578125,1.546875 0,0.46875 0,1.546875 -1.578125,1.546875 z m 0,0"
             style="stroke:none;stroke-width:0"
             inkscape:connector-curvature="0" />
          <path
             id="path958"
             transform="translate(155.49255,134.765)"
             d="M 1.671875,-3.3125 V -4.40625 L 0.28125,-4.296875 v 0.3125 c 0.703125,0 0.78125,0.0625 0.78125,0.5625 V -0.75 c 0,0.4375 -0.109375,0.4375 -0.78125,0.4375 V 0 c 0.390625,-0.015625 0.859375,-0.03125 1.140625,-0.03125 0.390625,0 0.859375,0 1.265625,0.03125 V -0.3125 H 2.46875 c -0.734375,0 -0.75,-0.109375 -0.75,-0.46875 V -2.3125 c 0,-0.984375 0.421875,-1.875 1.171875,-1.875 0.0625,0 0.09375,0 0.109375,0.015625 -0.03125,0 -0.234375,0.125 -0.234375,0.390625 0,0.265625 0.21875,0.421875 0.4375,0.421875 0.171875,0 0.421875,-0.125 0.421875,-0.4375 0,-0.3125 -0.3125,-0.609375 -0.734375,-0.609375 -0.734375,0 -1.09375,0.671875 -1.21875,1.09375 z m 0,0"
             style="stroke:none;stroke-width:0"
             inkscape:connector-curvature="0" />
          <path
             id="path960"
             transform="translate(159.3949,134.765)"
             d="M 4.6875,-2.140625 C 4.6875,-3.40625 3.703125,-4.46875 2.5,-4.46875 c -1.25,0 -2.21875,1.09375 -2.21875,2.328125 0,1.296875 1.03125,2.25 2.203125,2.25 1.203125,0 2.203125,-0.984375 2.203125,-2.25 z m -2.1875,2 c -0.4375,0 -0.875,-0.203125 -1.140625,-0.671875 -0.25,-0.4375 -0.25,-1.046875 -0.25,-1.40625 0,-0.390625 0,-0.921875 0.234375,-1.359375 C 1.609375,-4.03125 2.078125,-4.25 2.484375,-4.25 c 0.4375,0 0.859375,0.21875 1.125,0.65625 0.265625,0.421875 0.265625,1 0.265625,1.375 0,0.359375 0,0.90625 -0.21875,1.34375 C 3.421875,-0.421875 2.984375,-0.140625 2.5,-0.140625 Z m 0,0"
             style="stroke:none;stroke-width:0"
             inkscape:connector-curvature="0" />
          <path
             id="path962"
             transform="translate(164.3762,134.765)"
             d="m 1.71875,-3.765625 v -3.15625 L 0.28125,-6.8125 V -6.5 c 0.703125,0 0.78125,0.0625 0.78125,0.5625 V 0 h 0.25 c 0,-0.015625 0.078125,-0.15625 0.359375,-0.625 0.140625,0.234375 0.5625,0.734375 1.296875,0.734375 1.1875,0 2.21875,-0.984375 2.21875,-2.265625 0,-1.265625 -0.96875,-2.25 -2.109375,-2.25 -0.78125,0 -1.203125,0.46875 -1.359375,0.640625 z m 0.03125,2.625 V -3.1875 c 0,-0.1875 0,-0.203125 0.109375,-0.359375 C 2.25,-4.109375 2.796875,-4.1875 3.03125,-4.1875 c 0.453125,0 0.8125,0.265625 1.046875,0.640625 0.265625,0.40625 0.28125,0.96875 0.28125,1.390625 0,0.359375 -0.015625,0.953125 -0.296875,1.40625 -0.21875,0.3125 -0.59375,0.640625 -1.125,0.640625 -0.453125,0 -0.8125,-0.234375 -1.046875,-0.609375 C 1.75,-0.921875 1.75,-0.953125 1.75,-1.140625 Z m 0,0"
             style="stroke:none;stroke-width:0"
             inkscape:connector-curvature="0" />
          <path
             id="path964"
             transform="translate(169.91142,134.765)"
             d="M 1.765625,-6.921875 0.328125,-6.8125 V -6.5 c 0.703125,0 0.78125,0.0625 0.78125,0.5625 V -0.75 c 0,0.4375 -0.109375,0.4375 -0.78125,0.4375 V 0 C 0.65625,-0.015625 1.1875,-0.03125 1.4375,-0.03125 c 0.25,0 0.734375,0.015625 1.109375,0.03125 v -0.3125 c -0.671875,0 -0.78125,0 -0.78125,-0.4375 z m 0,0"
             style="stroke:none;stroke-width:0"
             inkscape:connector-curvature="0" />
          <path
             id="path966"
             transform="translate(172.67903,134.765)"
             d="M 1.109375,-2.515625 C 1.171875,-4 2.015625,-4.25 2.359375,-4.25 c 1.015625,0 1.125,1.34375 1.125,1.734375 z m 0,0.21875 h 2.78125 c 0.21875,0 0.25,0 0.25,-0.21875 0,-0.984375 -0.546875,-1.953125 -1.78125,-1.953125 -1.15625,0 -2.078125,1.03125 -2.078125,2.28125 0,1.328125 1.046875,2.296875 2.1875,2.296875 C 3.6875,0.109375 4.140625,-1 4.140625,-1.1875 4.140625,-1.28125 4.0625,-1.3125 4,-1.3125 c -0.078125,0 -0.109375,0.0625 -0.125,0.140625 -0.34375,1.03125 -1.25,1.03125 -1.34375,1.03125 -0.5,0 -0.890625,-0.296875 -1.125,-0.671875 -0.296875,-0.46875 -0.296875,-1.125 -0.296875,-1.484375 z m 0,0"
             style="stroke:none;stroke-width:0"
             inkscape:connector-curvature="0" />
          <path
             id="path968"
             transform="translate(177.10641,134.765)"
             d="M 1.09375,-3.421875 V -0.75 c 0,0.4375 -0.109375,0.4375 -0.78125,0.4375 V 0 c 0.359375,-0.015625 0.859375,-0.03125 1.140625,-0.03125 0.25,0 0.765625,0.015625 1.109375,0.03125 v -0.3125 c -0.671875,0 -0.78125,0 -0.78125,-0.4375 V -2.59375 C 1.78125,-3.625 2.5,-4.1875 3.125,-4.1875 c 0.640625,0 0.75,0.53125 0.75,1.109375 V -0.75 c 0,0.4375 -0.109375,0.4375 -0.78125,0.4375 V 0 c 0.34375,-0.015625 0.859375,-0.03125 1.125,-0.03125 0.25,0 0.78125,0.015625 1.109375,0.03125 v -0.3125 c -0.65625,0 -0.765625,0 -0.765625,-0.4375 v -1.84375 c 0,-1.03125 0.703125,-1.59375 1.34375,-1.59375 0.625,0 0.734375,0.53125 0.734375,1.109375 V -0.75 c 0,0.4375 -0.109375,0.4375 -0.78125,0.4375 V 0 c 0.34375,-0.015625 0.859375,-0.03125 1.125,-0.03125 0.265625,0 0.78125,0.015625 1.125,0.03125 v -0.3125 c -0.515625,0 -0.765625,0 -0.78125,-0.296875 v -1.90625 c 0,-0.859375 0,-1.15625 -0.3125,-1.515625 -0.140625,-0.171875 -0.46875,-0.375 -1.046875,-0.375 -0.828125,0 -1.28125,0.59375 -1.4375,0.984375 C 4.390625,-4.296875 3.65625,-4.40625 3.203125,-4.40625 2.46875,-4.40625 2,-3.984375 1.71875,-3.359375 V -4.40625 L 0.3125,-4.296875 v 0.3125 c 0.703125,0 0.78125,0.0625 0.78125,0.5625 z m 0,0"
             style="stroke:none;stroke-width:0"
             inkscape:connector-curvature="0" />
        </g>
        <g
           id="g974"
           style="fill:#000000;fill-opacity:1">
          <path
             id="path972"
             transform="translate(188.72579,134.765)"
             d="m 2.9375,-6.375 c 0,-0.25 0,-0.265625 -0.234375,-0.265625 C 2.078125,-6 1.203125,-6 0.890625,-6 v 0.3125 c 0.203125,0 0.78125,0 1.296875,-0.265625 v 5.171875 c 0,0.359375 -0.03125,0.46875 -0.921875,0.46875 h -0.3125 V 0 c 0.34375,-0.03125 1.203125,-0.03125 1.609375,-0.03125 0.390625,0 1.265625,0 1.609375,0.03125 v -0.3125 h -0.3125 c -0.90625,0 -0.921875,-0.109375 -0.921875,-0.46875 z m 0,0"
             style="stroke:none;stroke-width:0"
             inkscape:connector-curvature="0" />
        </g>
      </g>
    </g>
    <g
       id="g1099"
       ns1:jacobian_sqrt="0.441769"
       ns1:alignment="middle center"
       ns1:scale="1.25225755532"
       ns1:preamble="/home/jtorde/.config/inkscape/extensions/textext/default_packages.tex"
       ns1:text="Problem 2"
       ns1:pdfconverter="pdf2svg"
       ns1:texconverter="pdflatex"
       ns1:version="0.11.0"
       transform="matrix(0.441769,0,0,0.441769,26.174636,91.820693)">
      <g
         id="g1097">
        <g
           id="g1091"
           style="fill:#000000;fill-opacity:1">
          <path
             id="path1077"
             transform="translate(148.712,134.765)"
             d="m 2.265625,-3.15625 h 1.6875 c 1.1875,0 2.265625,-0.796875 2.265625,-1.796875 C 6.21875,-5.9375 5.234375,-6.8125 3.875,-6.8125 H 0.34375 V -6.5 h 0.25 c 0.765625,0 0.78125,0.109375 0.78125,0.46875 v 5.25 c 0,0.359375 -0.015625,0.46875 -0.78125,0.46875 h -0.25 V 0 c 0.359375,-0.03125 1.09375,-0.03125 1.46875,-0.03125 0.375,0 1.125,0 1.484375,0.03125 v -0.3125 h -0.25 c -0.765625,0 -0.78125,-0.109375 -0.78125,-0.46875 z m -0.03125,-0.25 v -2.6875 C 2.234375,-6.4375 2.25,-6.5 2.71875,-6.5 h 0.890625 c 1.578125,0 1.578125,1.0625 1.578125,1.546875 0,0.46875 0,1.546875 -1.578125,1.546875 z m 0,0"
             style="stroke:none;stroke-width:0"
             inkscape:connector-curvature="0" />
          <path
             id="path1079"
             transform="translate(155.49255,134.765)"
             d="M 1.671875,-3.3125 V -4.40625 L 0.28125,-4.296875 v 0.3125 c 0.703125,0 0.78125,0.0625 0.78125,0.5625 V -0.75 c 0,0.4375 -0.109375,0.4375 -0.78125,0.4375 V 0 c 0.390625,-0.015625 0.859375,-0.03125 1.140625,-0.03125 0.390625,0 0.859375,0 1.265625,0.03125 V -0.3125 H 2.46875 c -0.734375,0 -0.75,-0.109375 -0.75,-0.46875 V -2.3125 c 0,-0.984375 0.421875,-1.875 1.171875,-1.875 0.0625,0 0.09375,0 0.109375,0.015625 -0.03125,0 -0.234375,0.125 -0.234375,0.390625 0,0.265625 0.21875,0.421875 0.4375,0.421875 0.171875,0 0.421875,-0.125 0.421875,-0.4375 0,-0.3125 -0.3125,-0.609375 -0.734375,-0.609375 -0.734375,0 -1.09375,0.671875 -1.21875,1.09375 z m 0,0"
             style="stroke:none;stroke-width:0"
             inkscape:connector-curvature="0" />
          <path
             id="path1081"
             transform="translate(159.3949,134.765)"
             d="M 4.6875,-2.140625 C 4.6875,-3.40625 3.703125,-4.46875 2.5,-4.46875 c -1.25,0 -2.21875,1.09375 -2.21875,2.328125 0,1.296875 1.03125,2.25 2.203125,2.25 1.203125,0 2.203125,-0.984375 2.203125,-2.25 z m -2.1875,2 c -0.4375,0 -0.875,-0.203125 -1.140625,-0.671875 -0.25,-0.4375 -0.25,-1.046875 -0.25,-1.40625 0,-0.390625 0,-0.921875 0.234375,-1.359375 C 1.609375,-4.03125 2.078125,-4.25 2.484375,-4.25 c 0.4375,0 0.859375,0.21875 1.125,0.65625 0.265625,0.421875 0.265625,1 0.265625,1.375 0,0.359375 0,0.90625 -0.21875,1.34375 C 3.421875,-0.421875 2.984375,-0.140625 2.5,-0.140625 Z m 0,0"
             style="stroke:none;stroke-width:0"
             inkscape:connector-curvature="0" />
          <path
             id="path1083"
             transform="translate(164.3762,134.765)"
             d="m 1.71875,-3.765625 v -3.15625 L 0.28125,-6.8125 V -6.5 c 0.703125,0 0.78125,0.0625 0.78125,0.5625 V 0 h 0.25 c 0,-0.015625 0.078125,-0.15625 0.359375,-0.625 0.140625,0.234375 0.5625,0.734375 1.296875,0.734375 1.1875,0 2.21875,-0.984375 2.21875,-2.265625 0,-1.265625 -0.96875,-2.25 -2.109375,-2.25 -0.78125,0 -1.203125,0.46875 -1.359375,0.640625 z m 0.03125,2.625 V -3.1875 c 0,-0.1875 0,-0.203125 0.109375,-0.359375 C 2.25,-4.109375 2.796875,-4.1875 3.03125,-4.1875 c 0.453125,0 0.8125,0.265625 1.046875,0.640625 0.265625,0.40625 0.28125,0.96875 0.28125,1.390625 0,0.359375 -0.015625,0.953125 -0.296875,1.40625 -0.21875,0.3125 -0.59375,0.640625 -1.125,0.640625 -0.453125,0 -0.8125,-0.234375 -1.046875,-0.609375 C 1.75,-0.921875 1.75,-0.953125 1.75,-1.140625 Z m 0,0"
             style="stroke:none;stroke-width:0"
             inkscape:connector-curvature="0" />
          <path
             id="path1085"
             transform="translate(169.91142,134.765)"
             d="M 1.765625,-6.921875 0.328125,-6.8125 V -6.5 c 0.703125,0 0.78125,0.0625 0.78125,0.5625 V -0.75 c 0,0.4375 -0.109375,0.4375 -0.78125,0.4375 V 0 C 0.65625,-0.015625 1.1875,-0.03125 1.4375,-0.03125 c 0.25,0 0.734375,0.015625 1.109375,0.03125 v -0.3125 c -0.671875,0 -0.78125,0 -0.78125,-0.4375 z m 0,0"
             style="stroke:none;stroke-width:0"
             inkscape:connector-curvature="0" />
          <path
             id="path1087"
             transform="translate(172.67903,134.765)"
             d="M 1.109375,-2.515625 C 1.171875,-4 2.015625,-4.25 2.359375,-4.25 c 1.015625,0 1.125,1.34375 1.125,1.734375 z m 0,0.21875 h 2.78125 c 0.21875,0 0.25,0 0.25,-0.21875 0,-0.984375 -0.546875,-1.953125 -1.78125,-1.953125 -1.15625,0 -2.078125,1.03125 -2.078125,2.28125 0,1.328125 1.046875,2.296875 2.1875,2.296875 C 3.6875,0.109375 4.140625,-1 4.140625,-1.1875 4.140625,-1.28125 4.0625,-1.3125 4,-1.3125 c -0.078125,0 -0.109375,0.0625 -0.125,0.140625 -0.34375,1.03125 -1.25,1.03125 -1.34375,1.03125 -0.5,0 -0.890625,-0.296875 -1.125,-0.671875 -0.296875,-0.46875 -0.296875,-1.125 -0.296875,-1.484375 z m 0,0"
             style="stroke:none;stroke-width:0"
             inkscape:connector-curvature="0" />
          <path
             id="path1089"
             transform="translate(177.10641,134.765)"
             d="M 1.09375,-3.421875 V -0.75 c 0,0.4375 -0.109375,0.4375 -0.78125,0.4375 V 0 c 0.359375,-0.015625 0.859375,-0.03125 1.140625,-0.03125 0.25,0 0.765625,0.015625 1.109375,0.03125 v -0.3125 c -0.671875,0 -0.78125,0 -0.78125,-0.4375 V -2.59375 C 1.78125,-3.625 2.5,-4.1875 3.125,-4.1875 c 0.640625,0 0.75,0.53125 0.75,1.109375 V -0.75 c 0,0.4375 -0.109375,0.4375 -0.78125,0.4375 V 0 c 0.34375,-0.015625 0.859375,-0.03125 1.125,-0.03125 0.25,0 0.78125,0.015625 1.109375,0.03125 v -0.3125 c -0.65625,0 -0.765625,0 -0.765625,-0.4375 v -1.84375 c 0,-1.03125 0.703125,-1.59375 1.34375,-1.59375 0.625,0 0.734375,0.53125 0.734375,1.109375 V -0.75 c 0,0.4375 -0.109375,0.4375 -0.78125,0.4375 V 0 c 0.34375,-0.015625 0.859375,-0.03125 1.125,-0.03125 0.265625,0 0.78125,0.015625 1.125,0.03125 v -0.3125 c -0.515625,0 -0.765625,0 -0.78125,-0.296875 v -1.90625 c 0,-0.859375 0,-1.15625 -0.3125,-1.515625 -0.140625,-0.171875 -0.46875,-0.375 -1.046875,-0.375 -0.828125,0 -1.28125,0.59375 -1.4375,0.984375 C 4.390625,-4.296875 3.65625,-4.40625 3.203125,-4.40625 2.46875,-4.40625 2,-3.984375 1.71875,-3.359375 V -4.40625 L 0.3125,-4.296875 v 0.3125 c 0.703125,0 0.78125,0.0625 0.78125,0.5625 z m 0,0"
             style="stroke:none;stroke-width:0"
             inkscape:connector-curvature="0" />
        </g>
        <g
           id="g1095"
           style="fill:#000000;fill-opacity:1">
          <path
             id="path1093"
             transform="translate(188.72579,134.765)"
             d="m 1.265625,-0.765625 1.0625,-1.03125 c 1.546875,-1.375 2.140625,-1.90625 2.140625,-2.90625 0,-1.140625 -0.890625,-1.9375 -2.109375,-1.9375 -1.125,0 -1.859375,0.921875 -1.859375,1.8125 0,0.546875 0.5,0.546875 0.53125,0.546875 0.171875,0 0.515625,-0.109375 0.515625,-0.53125 0,-0.25 -0.1875,-0.515625 -0.53125,-0.515625 -0.078125,0 -0.09375,0 -0.125,0.015625 0.21875,-0.65625 0.765625,-1.015625 1.34375,-1.015625 0.90625,0 1.328125,0.8125 1.328125,1.625 C 3.5625,-3.90625 3.078125,-3.125 2.515625,-2.5 l -1.90625,2.125 C 0.5,-0.265625 0.5,-0.234375 0.5,0 H 4.203125 L 4.46875,-1.734375 H 4.234375 C 4.171875,-1.4375 4.109375,-1 4,-0.84375 3.9375,-0.765625 3.28125,-0.765625 3.0625,-0.765625 Z m 0,0"
             style="stroke:none;stroke-width:0"
             inkscape:connector-curvature="0" />
        </g>
      </g>
    </g>
    <g
       id="g1232"
       ns1:jacobian_sqrt="0.441769"
       ns1:alignment="middle center"
       ns1:scale="1.25225755532"
       ns1:preamble="/home/jtorde/.config/inkscape/extensions/textext/default_packages.tex"
       ns1:text="Problem 3"
       ns1:pdfconverter="pdf2svg"
       ns1:texconverter="pdflatex"
       ns1:version="0.11.0"
       transform="matrix(0.441769,0,0,0.441769,1.8885191,59.431391)">
      <g
         id="g1230">
        <g
           id="g1224"
           style="fill:#000000;fill-opacity:1">
          <path
             id="path1210"
             transform="translate(148.712,134.765)"
             d="m 2.265625,-3.15625 h 1.6875 c 1.1875,0 2.265625,-0.796875 2.265625,-1.796875 C 6.21875,-5.9375 5.234375,-6.8125 3.875,-6.8125 H 0.34375 V -6.5 h 0.25 c 0.765625,0 0.78125,0.109375 0.78125,0.46875 v 5.25 c 0,0.359375 -0.015625,0.46875 -0.78125,0.46875 h -0.25 V 0 c 0.359375,-0.03125 1.09375,-0.03125 1.46875,-0.03125 0.375,0 1.125,0 1.484375,0.03125 v -0.3125 h -0.25 c -0.765625,0 -0.78125,-0.109375 -0.78125,-0.46875 z m -0.03125,-0.25 v -2.6875 C 2.234375,-6.4375 2.25,-6.5 2.71875,-6.5 h 0.890625 c 1.578125,0 1.578125,1.0625 1.578125,1.546875 0,0.46875 0,1.546875 -1.578125,1.546875 z m 0,0"
             style="stroke:none;stroke-width:0"
             inkscape:connector-curvature="0" />
          <path
             id="path1212"
             transform="translate(155.49255,134.765)"
             d="M 1.671875,-3.3125 V -4.40625 L 0.28125,-4.296875 v 0.3125 c 0.703125,0 0.78125,0.0625 0.78125,0.5625 V -0.75 c 0,0.4375 -0.109375,0.4375 -0.78125,0.4375 V 0 c 0.390625,-0.015625 0.859375,-0.03125 1.140625,-0.03125 0.390625,0 0.859375,0 1.265625,0.03125 V -0.3125 H 2.46875 c -0.734375,0 -0.75,-0.109375 -0.75,-0.46875 V -2.3125 c 0,-0.984375 0.421875,-1.875 1.171875,-1.875 0.0625,0 0.09375,0 0.109375,0.015625 -0.03125,0 -0.234375,0.125 -0.234375,0.390625 0,0.265625 0.21875,0.421875 0.4375,0.421875 0.171875,0 0.421875,-0.125 0.421875,-0.4375 0,-0.3125 -0.3125,-0.609375 -0.734375,-0.609375 -0.734375,0 -1.09375,0.671875 -1.21875,1.09375 z m 0,0"
             style="stroke:none;stroke-width:0"
             inkscape:connector-curvature="0" />
          <path
             id="path1214"
             transform="translate(159.3949,134.765)"
             d="M 4.6875,-2.140625 C 4.6875,-3.40625 3.703125,-4.46875 2.5,-4.46875 c -1.25,0 -2.21875,1.09375 -2.21875,2.328125 0,1.296875 1.03125,2.25 2.203125,2.25 1.203125,0 2.203125,-0.984375 2.203125,-2.25 z m -2.1875,2 c -0.4375,0 -0.875,-0.203125 -1.140625,-0.671875 -0.25,-0.4375 -0.25,-1.046875 -0.25,-1.40625 0,-0.390625 0,-0.921875 0.234375,-1.359375 C 1.609375,-4.03125 2.078125,-4.25 2.484375,-4.25 c 0.4375,0 0.859375,0.21875 1.125,0.65625 0.265625,0.421875 0.265625,1 0.265625,1.375 0,0.359375 0,0.90625 -0.21875,1.34375 C 3.421875,-0.421875 2.984375,-0.140625 2.5,-0.140625 Z m 0,0"
             style="stroke:none;stroke-width:0"
             inkscape:connector-curvature="0" />
          <path
             id="path1216"
             transform="translate(164.3762,134.765)"
             d="m 1.71875,-3.765625 v -3.15625 L 0.28125,-6.8125 V -6.5 c 0.703125,0 0.78125,0.0625 0.78125,0.5625 V 0 h 0.25 c 0,-0.015625 0.078125,-0.15625 0.359375,-0.625 0.140625,0.234375 0.5625,0.734375 1.296875,0.734375 1.1875,0 2.21875,-0.984375 2.21875,-2.265625 0,-1.265625 -0.96875,-2.25 -2.109375,-2.25 -0.78125,0 -1.203125,0.46875 -1.359375,0.640625 z m 0.03125,2.625 V -3.1875 c 0,-0.1875 0,-0.203125 0.109375,-0.359375 C 2.25,-4.109375 2.796875,-4.1875 3.03125,-4.1875 c 0.453125,0 0.8125,0.265625 1.046875,0.640625 0.265625,0.40625 0.28125,0.96875 0.28125,1.390625 0,0.359375 -0.015625,0.953125 -0.296875,1.40625 -0.21875,0.3125 -0.59375,0.640625 -1.125,0.640625 -0.453125,0 -0.8125,-0.234375 -1.046875,-0.609375 C 1.75,-0.921875 1.75,-0.953125 1.75,-1.140625 Z m 0,0"
             style="stroke:none;stroke-width:0"
             inkscape:connector-curvature="0" />
          <path
             id="path1218"
             transform="translate(169.91142,134.765)"
             d="M 1.765625,-6.921875 0.328125,-6.8125 V -6.5 c 0.703125,0 0.78125,0.0625 0.78125,0.5625 V -0.75 c 0,0.4375 -0.109375,0.4375 -0.78125,0.4375 V 0 C 0.65625,-0.015625 1.1875,-0.03125 1.4375,-0.03125 c 0.25,0 0.734375,0.015625 1.109375,0.03125 v -0.3125 c -0.671875,0 -0.78125,0 -0.78125,-0.4375 z m 0,0"
             style="stroke:none;stroke-width:0"
             inkscape:connector-curvature="0" />
          <path
             id="path1220"
             transform="translate(172.67903,134.765)"
             d="M 1.109375,-2.515625 C 1.171875,-4 2.015625,-4.25 2.359375,-4.25 c 1.015625,0 1.125,1.34375 1.125,1.734375 z m 0,0.21875 h 2.78125 c 0.21875,0 0.25,0 0.25,-0.21875 0,-0.984375 -0.546875,-1.953125 -1.78125,-1.953125 -1.15625,0 -2.078125,1.03125 -2.078125,2.28125 0,1.328125 1.046875,2.296875 2.1875,2.296875 C 3.6875,0.109375 4.140625,-1 4.140625,-1.1875 4.140625,-1.28125 4.0625,-1.3125 4,-1.3125 c -0.078125,0 -0.109375,0.0625 -0.125,0.140625 -0.34375,1.03125 -1.25,1.03125 -1.34375,1.03125 -0.5,0 -0.890625,-0.296875 -1.125,-0.671875 -0.296875,-0.46875 -0.296875,-1.125 -0.296875,-1.484375 z m 0,0"
             style="stroke:none;stroke-width:0"
             inkscape:connector-curvature="0" />
          <path
             id="path1222"
             transform="translate(177.10641,134.765)"
             d="M 1.09375,-3.421875 V -0.75 c 0,0.4375 -0.109375,0.4375 -0.78125,0.4375 V 0 c 0.359375,-0.015625 0.859375,-0.03125 1.140625,-0.03125 0.25,0 0.765625,0.015625 1.109375,0.03125 v -0.3125 c -0.671875,0 -0.78125,0 -0.78125,-0.4375 V -2.59375 C 1.78125,-3.625 2.5,-4.1875 3.125,-4.1875 c 0.640625,0 0.75,0.53125 0.75,1.109375 V -0.75 c 0,0.4375 -0.109375,0.4375 -0.78125,0.4375 V 0 c 0.34375,-0.015625 0.859375,-0.03125 1.125,-0.03125 0.25,0 0.78125,0.015625 1.109375,0.03125 v -0.3125 c -0.65625,0 -0.765625,0 -0.765625,-0.4375 v -1.84375 c 0,-1.03125 0.703125,-1.59375 1.34375,-1.59375 0.625,0 0.734375,0.53125 0.734375,1.109375 V -0.75 c 0,0.4375 -0.109375,0.4375 -0.78125,0.4375 V 0 c 0.34375,-0.015625 0.859375,-0.03125 1.125,-0.03125 0.265625,0 0.78125,0.015625 1.125,0.03125 v -0.3125 c -0.515625,0 -0.765625,0 -0.78125,-0.296875 v -1.90625 c 0,-0.859375 0,-1.15625 -0.3125,-1.515625 -0.140625,-0.171875 -0.46875,-0.375 -1.046875,-0.375 -0.828125,0 -1.28125,0.59375 -1.4375,0.984375 C 4.390625,-4.296875 3.65625,-4.40625 3.203125,-4.40625 2.46875,-4.40625 2,-3.984375 1.71875,-3.359375 V -4.40625 L 0.3125,-4.296875 v 0.3125 c 0.703125,0 0.78125,0.0625 0.78125,0.5625 z m 0,0"
             style="stroke:none;stroke-width:0"
             inkscape:connector-curvature="0" />
        </g>
        <g
           id="g1228"
           style="fill:#000000;fill-opacity:1">
          <path
             id="path1226"
             transform="translate(188.72579,134.765)"
             d="m 2.890625,-3.515625 c 0.8125,-0.265625 1.390625,-0.953125 1.390625,-1.75 0,-0.8125 -0.875,-1.375 -1.828125,-1.375 -1,0 -1.765625,0.59375 -1.765625,1.359375 0,0.328125 0.21875,0.515625 0.515625,0.515625 0.296875,0 0.5,-0.21875 0.5,-0.515625 0,-0.484375 -0.46875,-0.484375 -0.609375,-0.484375 0.296875,-0.5 0.953125,-0.625 1.3125,-0.625 0.421875,0 0.96875,0.21875 0.96875,1.109375 0,0.125 -0.03125,0.703125 -0.28125,1.140625 C 2.796875,-3.65625 2.453125,-3.625 2.203125,-3.625 2.125,-3.609375 1.890625,-3.59375 1.8125,-3.59375 c -0.078125,0.015625 -0.140625,0.03125 -0.140625,0.125 0,0.109375 0.0625,0.109375 0.234375,0.109375 h 0.4375 c 0.8125,0 1.1875,0.671875 1.1875,1.65625 0,1.359375 -0.6875,1.640625 -1.125,1.640625 -0.4375,0 -1.1875,-0.171875 -1.53125,-0.75 0.34375,0.046875 0.65625,-0.171875 0.65625,-0.546875 0,-0.359375 -0.265625,-0.5625 -0.546875,-0.5625 -0.25,0 -0.5625,0.140625 -0.5625,0.578125 0,0.90625 0.921875,1.5625 2.015625,1.5625 1.21875,0 2.125,-0.90625 2.125,-1.921875 0,-0.8125 -0.640625,-1.59375 -1.671875,-1.8125 z m 0,0"
             style="stroke:none;stroke-width:0"
             inkscape:connector-curvature="0" />
        </g>
      </g>
    </g>
    <g
       id="g1720"
       ns1:jacobian_sqrt="0.441769"
       ns1:alignment="middle center"
       ns1:scale="1.25225755532"
       ns1:preamble="/home/jtorde/.config/inkscape/extensions/textext/default_packages.tex"
       ns1:text="$\\boldsymbol{V_{opt}}$"
       ns1:pdfconverter="pdf2svg"
       ns1:texconverter="pdflatex"
       ns1:version="0.11.0"
       transform="matrix(0.441769,0,0,0.441769,-12.605521,97.282065)">
      <g
         id="g1718">
        <g
           id="g1708"
           style="fill:#000000;fill-opacity:1">
          <path
             id="path1706"
             transform="translate(148.712,134.765)"
             d="M 7.5625,-5.96875 C 7.71875,-6.1875 7.828125,-6.359375 8.515625,-6.375 c 0.125,0 0.3125,0 0.3125,-0.28125 0,-0.0625 -0.0625,-0.1875 -0.1875,-0.1875 -0.28125,0 -0.609375,0.03125 -0.90625,0.03125 -0.359375,0 -0.75,-0.03125 -1.09375,-0.03125 -0.078125,0 -0.265625,0 -0.265625,0.296875 0,0.171875 0.171875,0.171875 0.25,0.171875 0.046875,0 0.34375,0 0.5625,0.109375 l -3.296875,4.78125 -0.875,-4.671875 C 3.015625,-6.1875 3,-6.265625 3,-6.296875 3,-6.375 3.53125,-6.375 3.609375,-6.375 c 0.21875,0 0.375,0 0.375,-0.28125 0,-0.125 -0.09375,-0.1875 -0.21875,-0.1875 -0.25,0 -0.5,0.03125 -0.75,0.03125 -0.25,0 -0.5,0 -0.734375,0 -0.234375,0 -0.453125,0 -0.6875,0 -0.21875,0 -0.453125,-0.03125 -0.65625,-0.03125 -0.09375,0 -0.28125,0 -0.28125,0.296875 0,0.171875 0.15625,0.171875 0.375,0.171875 0.125,0 0.25,0 0.390625,0.015625 0.109375,0.015625 0.109375,0.015625 0.140625,0.1875 l 1.140625,6.0625 c 0.046875,0.28125 0.15625,0.28125 0.34375,0.28125 0.28125,0 0.328125,-0.078125 0.46875,-0.265625 z m 0,0"
             style="stroke:none;stroke-width:0"
             inkscape:connector-curvature="0" />
        </g>
        <g
           id="g1716"
           style="fill:#000000;fill-opacity:1">
          <path
             id="path1710"
             transform="translate(155.465,136.259)"
             d="m 4.40625,-1.890625 c 0,-0.75 -0.5625,-1.265625 -1.625,-1.265625 -1.609375,0 -2.375,1.109375 -2.375,1.953125 0,0.75 0.5625,1.265625 1.640625,1.265625 1.59375,0 2.359375,-1.109375 2.359375,-1.953125 z m -2.34375,1.625 c -0.15625,0 -0.390625,-0.03125 -0.5625,-0.15625 -0.203125,-0.15625 -0.203125,-0.390625 -0.203125,-0.5 0,-0.140625 0.109375,-1 0.46875,-1.453125 0.21875,-0.28125 0.578125,-0.453125 1,-0.453125 0.140625,0 0.375,0.03125 0.546875,0.15625 0.203125,0.15625 0.203125,0.390625 0.203125,0.5 0,0.140625 -0.09375,1 -0.46875,1.453125 C 2.84375,-0.4375 2.46875,-0.265625 2.0625,-0.265625 Z m 0,0"
             style="stroke:none;stroke-width:0"
             inkscape:connector-curvature="0" />
          <path
             id="path1712"
             transform="translate(160.04609,136.259)"
             d="M 0.59375,0.84375 C 0.578125,0.9375 0.5625,0.9375 0.5625,0.953125 0.515625,0.96875 0.4375,0.96875 0.375,0.96875 c -0.109375,0 -0.25,0 -0.25,0.234375 0,0.109375 0.09375,0.15625 0.140625,0.15625 0.203125,0 0.4375,-0.03125 0.65625,-0.03125 0.171875,0 0.609375,0.03125 0.78125,0.03125 0.109375,0 0.21875,-0.0625 0.21875,-0.25 C 1.921875,1.046875 1.875,0.96875 1.75,0.96875 1.6875,0.953125 1.515625,0.96875 1.4375,0.953125 L 1.71875,-0.1875 c 0.21875,0.171875 0.5,0.25 0.796875,0.25 1.34375,0 2.109375,-1.09375 2.109375,-2.015625 0,-0.84375 -0.671875,-1.203125 -1.375,-1.203125 -0.5625,0 -0.9375,0.25 -1.078125,0.375 -0.140625,-0.21875 -0.5,-0.375 -0.875,-0.375 -0.765625,0 -0.984375,1.046875 -0.984375,1.09375 0,0.125 0.109375,0.125 0.21875,0.125 0.171875,0 0.1875,0 0.21875,-0.15625 0.09375,-0.3125 0.21875,-0.734375 0.484375,-0.734375 0.171875,0 0.1875,0.171875 0.1875,0.28125 0,0.078125 0,0.09375 -0.03125,0.21875 z m 1.640625,-3.0625 C 2.25,-2.265625 2.25,-2.3125 2.265625,-2.34375 c 0.03125,-0.078125 0.40625,-0.484375 0.9375,-0.484375 0.328125,0 0.546875,0.171875 0.546875,0.546875 0,0.265625 -0.1875,1.09375 -0.375,1.4375 -0.1875,0.390625 -0.53125,0.578125 -0.859375,0.578125 -0.515625,0 -0.65625,-0.375 -0.65625,-0.40625 L 1.875,-0.78125 Z m 0,0"
             style="stroke:none;stroke-width:0"
             inkscape:connector-curvature="0" />
          <path
             id="path1714"
             transform="translate(164.8343,136.259)"
             d="m 2,-2.703125 h 0.703125 c 0.125,0 0.171875,0 0.203125,-0.046875 0.046875,-0.03125 0.078125,-0.140625 0.078125,-0.1875 0,-0.15625 -0.140625,-0.15625 -0.265625,-0.15625 h -0.625 c 0.0625,-0.234375 0.0625,-0.25 0.125,-0.515625 0.046875,-0.171875 0.125,-0.46875 0.125,-0.515625 0,-0.21875 -0.15625,-0.359375 -0.375,-0.359375 -0.390625,0 -0.484375,0.359375 -0.515625,0.53125 -0.078125,0.28125 -0.15625,0.5625 -0.21875,0.859375 H 0.53125 c -0.125,0 -0.171875,0 -0.203125,0.046875 C 0.28125,-3.015625 0.25,-2.90625 0.25,-2.859375 c 0,0.15625 0.140625,0.15625 0.265625,0.15625 H 1.125 l -0.484375,2.0625 c 0,0.46875 0.515625,0.703125 0.984375,0.703125 0.953125,0 1.46875,-0.9375 1.46875,-1.09375 0,-0.125 -0.125,-0.125 -0.21875,-0.125 -0.171875,0 -0.171875,0 -0.234375,0.125 -0.265625,0.5625 -0.6875,0.765625 -0.96875,0.765625 -0.09375,0 -0.1875,-0.046875 -0.1875,-0.28125 0,-0.09375 0,-0.09375 0.03125,-0.234375 z m 0,0"
             style="stroke:none;stroke-width:0"
             inkscape:connector-curvature="0" />
        </g>
      </g>
    </g>
    <g
       id="g1853"
       ns1:jacobian_sqrt="0.441769"
       ns1:alignment="middle center"
       ns1:scale="1.25225755532"
       ns1:preamble="/home/jtorde/.config/inkscape/extensions/textext/default_packages.tex"
       ns1:text="$\\boldsymbol{P_{opt}}$"
       ns1:pdfconverter="pdf2svg"
       ns1:texconverter="pdflatex"
       ns1:version="0.11.0"
       transform="matrix(0.441769,0,0,0.441769,32.233481,96.520984)">
      <g
         id="g1851">
        <g
           id="g1841"
           style="fill:#000000;fill-opacity:1">
          <path
             id="path1839"
             transform="translate(148.712,134.765)"
             d="M 3.609375,-3.015625 H 5.375 c 1.828125,0 3.09375,-1.109375 3.09375,-2.28125 0,-1.015625 -0.921875,-1.546875 -2.234375,-1.546875 h -3.84375 c -0.1875,0 -0.359375,0 -0.359375,0.296875 0,0.171875 0.125,0.171875 0.40625,0.171875 0.21875,0 0.40625,0.015625 0.609375,0.03125 L 1.625,-0.671875 C 1.578125,-0.515625 1.578125,-0.5 1.390625,-0.484375 1.21875,-0.46875 1.03125,-0.46875 0.875,-0.46875 c -0.265625,0 -0.28125,0 -0.3125,0.03125 -0.140625,0.0625 -0.140625,0.203125 -0.140625,0.265625 0,0 0,0.171875 0.21875,0.171875 0.25,0 0.515625,-0.015625 0.765625,-0.015625 0.25,0 0.5,-0.015625 0.75,-0.015625 0.265625,0 0.53125,0.015625 0.78125,0.015625 C 3.1875,-0.015625 3.453125,0 3.703125,0 3.8125,0 4,0 4,-0.28125 4,-0.46875 3.875,-0.46875 3.59375,-0.46875 3.375,-0.46875 3.1875,-0.484375 2.984375,-0.484375 Z M 4.34375,-6.1875 C 4.390625,-6.34375 4.390625,-6.34375 4.453125,-6.359375 4.546875,-6.375 4.609375,-6.375 4.71875,-6.375 h 1.046875 c 0.546875,0 1.296875,0.109375 1.296875,0.796875 0,0.109375 -0.125,1.125 -0.5,1.609375 -0.203125,0.265625 -0.65625,0.546875 -1.546875,0.546875 H 3.65625 Z m 0,0"
             style="stroke:none;stroke-width:0"
             inkscape:connector-curvature="0" />
        </g>
        <g
           id="g1849"
           style="fill:#000000;fill-opacity:1">
          <path
             id="path1843"
             transform="translate(155.916,136.259)"
             d="m 4.40625,-1.890625 c 0,-0.75 -0.5625,-1.265625 -1.625,-1.265625 -1.609375,0 -2.375,1.109375 -2.375,1.953125 0,0.75 0.5625,1.265625 1.640625,1.265625 1.59375,0 2.359375,-1.109375 2.359375,-1.953125 z m -2.34375,1.625 c -0.15625,0 -0.390625,-0.03125 -0.5625,-0.15625 -0.203125,-0.15625 -0.203125,-0.390625 -0.203125,-0.5 0,-0.140625 0.109375,-1 0.46875,-1.453125 0.21875,-0.28125 0.578125,-0.453125 1,-0.453125 0.140625,0 0.375,0.03125 0.546875,0.15625 0.203125,0.15625 0.203125,0.390625 0.203125,0.5 0,0.140625 -0.09375,1 -0.46875,1.453125 C 2.84375,-0.4375 2.46875,-0.265625 2.0625,-0.265625 Z m 0,0"
             style="stroke:none;stroke-width:0"
             inkscape:connector-curvature="0" />
          <path
             id="path1845"
             transform="translate(160.49709,136.259)"
             d="M 0.59375,0.84375 C 0.578125,0.9375 0.5625,0.9375 0.5625,0.953125 0.515625,0.96875 0.4375,0.96875 0.375,0.96875 c -0.109375,0 -0.25,0 -0.25,0.234375 0,0.109375 0.09375,0.15625 0.140625,0.15625 0.203125,0 0.4375,-0.03125 0.65625,-0.03125 0.171875,0 0.609375,0.03125 0.78125,0.03125 0.109375,0 0.21875,-0.0625 0.21875,-0.25 C 1.921875,1.046875 1.875,0.96875 1.75,0.96875 1.6875,0.953125 1.515625,0.96875 1.4375,0.953125 L 1.71875,-0.1875 c 0.21875,0.171875 0.5,0.25 0.796875,0.25 1.34375,0 2.109375,-1.09375 2.109375,-2.015625 0,-0.84375 -0.671875,-1.203125 -1.375,-1.203125 -0.5625,0 -0.9375,0.25 -1.078125,0.375 -0.140625,-0.21875 -0.5,-0.375 -0.875,-0.375 -0.765625,0 -0.984375,1.046875 -0.984375,1.09375 0,0.125 0.109375,0.125 0.21875,0.125 0.171875,0 0.1875,0 0.21875,-0.15625 0.09375,-0.3125 0.21875,-0.734375 0.484375,-0.734375 0.171875,0 0.1875,0.171875 0.1875,0.28125 0,0.078125 0,0.09375 -0.03125,0.21875 z m 1.640625,-3.0625 C 2.25,-2.265625 2.25,-2.3125 2.265625,-2.34375 c 0.03125,-0.078125 0.40625,-0.484375 0.9375,-0.484375 0.328125,0 0.546875,0.171875 0.546875,0.546875 0,0.265625 -0.1875,1.09375 -0.375,1.4375 -0.1875,0.390625 -0.53125,0.578125 -0.859375,0.578125 -0.515625,0 -0.65625,-0.375 -0.65625,-0.40625 L 1.875,-0.78125 Z m 0,0"
             style="stroke:none;stroke-width:0"
             inkscape:connector-curvature="0" />
          <path
             id="path1847"
             transform="translate(165.2853,136.259)"
             d="m 2,-2.703125 h 0.703125 c 0.125,0 0.171875,0 0.203125,-0.046875 0.046875,-0.03125 0.078125,-0.140625 0.078125,-0.1875 0,-0.15625 -0.140625,-0.15625 -0.265625,-0.15625 h -0.625 c 0.0625,-0.234375 0.0625,-0.25 0.125,-0.515625 0.046875,-0.171875 0.125,-0.46875 0.125,-0.515625 0,-0.21875 -0.15625,-0.359375 -0.375,-0.359375 -0.390625,0 -0.484375,0.359375 -0.515625,0.53125 -0.078125,0.28125 -0.15625,0.5625 -0.21875,0.859375 H 0.53125 c -0.125,0 -0.171875,0 -0.203125,0.046875 C 0.28125,-3.015625 0.25,-2.90625 0.25,-2.859375 c 0,0.15625 0.140625,0.15625 0.265625,0.15625 H 1.125 l -0.484375,2.0625 c 0,0.46875 0.515625,0.703125 0.984375,0.703125 0.953125,0 1.46875,-0.9375 1.46875,-1.09375 0,-0.125 -0.125,-0.125 -0.21875,-0.125 -0.171875,0 -0.171875,0 -0.234375,0.125 -0.265625,0.5625 -0.6875,0.765625 -0.96875,0.765625 -0.09375,0 -0.1875,-0.046875 -0.1875,-0.28125 0,-0.09375 0,-0.09375 0.03125,-0.234375 z m 0,0"
             style="stroke:none;stroke-width:0"
             inkscape:connector-curvature="0" />
        </g>
      </g>
    </g>
    <g
       id="g1952"
       ns1:jacobian_sqrt="0.441769"
       ns1:alignment="middle center"
       ns1:scale="1.25225755532"
       ns1:preamble="/home/jtorde/.config/inkscape/extensions/textext/default_packages.tex"
       ns1:text="$\\boldsymbol{V}\\boldsymbol{A}_{opt}$"
       ns1:pdfconverter="pdf2svg"
       ns1:texconverter="pdflatex"
       ns1:version="0.11.0"
       transform="matrix(0.441769,0,0,0.441769,28.394126,77.25432)">
      <g
         id="g1950">
        <g
           id="g1936"
           style="fill:#000000;fill-opacity:1">
          <path
             id="path1934"
             transform="translate(148.712,134.765)"
             d="M 7.5625,-5.96875 C 7.71875,-6.1875 7.828125,-6.359375 8.515625,-6.375 c 0.125,0 0.3125,0 0.3125,-0.28125 0,-0.0625 -0.0625,-0.1875 -0.1875,-0.1875 -0.28125,0 -0.609375,0.03125 -0.90625,0.03125 -0.359375,0 -0.75,-0.03125 -1.09375,-0.03125 -0.078125,0 -0.265625,0 -0.265625,0.296875 0,0.171875 0.171875,0.171875 0.25,0.171875 0.046875,0 0.34375,0 0.5625,0.109375 l -3.296875,4.78125 -0.875,-4.671875 C 3.015625,-6.1875 3,-6.265625 3,-6.296875 3,-6.375 3.53125,-6.375 3.609375,-6.375 c 0.21875,0 0.375,0 0.375,-0.28125 0,-0.125 -0.09375,-0.1875 -0.21875,-0.1875 -0.25,0 -0.5,0.03125 -0.75,0.03125 -0.25,0 -0.5,0 -0.734375,0 -0.234375,0 -0.453125,0 -0.6875,0 -0.21875,0 -0.453125,-0.03125 -0.65625,-0.03125 -0.09375,0 -0.28125,0 -0.28125,0.296875 0,0.171875 0.15625,0.171875 0.375,0.171875 0.125,0 0.25,0 0.390625,0.015625 0.109375,0.015625 0.109375,0.015625 0.140625,0.1875 l 1.140625,6.0625 c 0.046875,0.28125 0.15625,0.28125 0.34375,0.28125 0.28125,0 0.328125,-0.078125 0.46875,-0.265625 z m 0,0"
             style="stroke:none;stroke-width:0"
             inkscape:connector-curvature="0" />
        </g>
        <g
           id="g1940"
           style="fill:#000000;fill-opacity:1">
          <path
             id="path1938"
             transform="translate(158.01508,134.765)"
             d="m 6.4375,-6.796875 c -0.046875,-0.25 -0.09375,-0.296875 -0.34375,-0.296875 -0.21875,0 -0.296875,0.046875 -0.4375,0.25 l -3.921875,6 c -0.125,0.1875 -0.234375,0.359375 -0.96875,0.375 -0.140625,0 -0.3125,0 -0.3125,0.296875 0,0.078125 0.0625,0.171875 0.1875,0.171875 0.296875,0 0.640625,-0.03125 0.9375,-0.03125 0.375,0 0.75,0.03125 1.109375,0.03125 0.078125,0 0.265625,0 0.265625,-0.296875 0,-0.171875 -0.171875,-0.171875 -0.25,-0.171875 -0.078125,0 -0.359375,0 -0.578125,-0.109375 L 3.046875,-1.96875 h 2.6875 l 0.234375,1.453125 c -0.203125,0.03125 -0.5,0.046875 -0.65625,0.046875 -0.203125,0 -0.375,0 -0.375,0.296875 C 4.9375,-0.046875 5.046875,0 5.15625,0 5.5,0 6.3125,-0.03125 6.65625,-0.03125 c 0.21875,0 0.453125,0.015625 0.6875,0.015625 C 7.5625,-0.015625 7.8125,0 8.03125,0 8.125,0 8.3125,0 8.3125,-0.296875 c 0,-0.171875 -0.140625,-0.171875 -0.390625,-0.171875 -0.140625,0 -0.25,0 -0.390625,-0.015625 -0.125,0 -0.140625,-0.015625 -0.171875,-0.1875 z m -1.21875,1.484375 0.4375,2.875 h -2.3125 z m 0,0"
             style="stroke:none;stroke-width:0"
             inkscape:connector-curvature="0" />
        </g>
        <g
           id="g1948"
           style="fill:#000000;fill-opacity:1">
          <path
             id="path1942"
             transform="translate(166.673,136.259)"
             d="m 3.703125,-1.859375 c 0,-0.765625 -0.578125,-1.21875 -1.265625,-1.21875 -1.03125,0 -2,0.96875 -2,1.921875 0,0.703125 0.5,1.21875 1.265625,1.21875 1,0 2,-0.90625 2,-1.921875 z m -2,1.734375 c -0.34375,0 -0.6875,-0.21875 -0.6875,-0.78125 0,-0.28125 0.125,-0.96875 0.40625,-1.359375 C 1.71875,-2.703125 2.125,-2.875 2.4375,-2.875 c 0.375,0 0.6875,0.25 0.6875,0.765625 C 3.125,-1.9375 3.046875,-1.25 2.734375,-0.765625 2.46875,-0.34375 2.0625,-0.125 1.703125,-0.125 Z m 0,0"
             style="stroke:none;stroke-width:0"
             inkscape:connector-curvature="0" />
          <path
             id="path1944"
             transform="translate(170.60553,136.259)"
             d="m 0.515625,0.84375 c -0.046875,0.203125 -0.0625,0.25 -0.328125,0.25 -0.09375,0 -0.1875,0 -0.1875,0.15625 0,0.078125 0.0625,0.109375 0.09375,0.109375 0.171875,0 0.40625,-0.03125 0.59375,-0.03125 0.234375,0 0.5,0.03125 0.734375,0.03125 0.0625,0 0.140625,-0.03125 0.140625,-0.15625 0,-0.109375 -0.09375,-0.109375 -0.1875,-0.109375 -0.15625,0 -0.34375,0 -0.34375,-0.078125 0,-0.03125 0.0625,-0.21875 0.078125,-0.3125 0.09375,-0.375 0.1875,-0.75 0.265625,-1.046875 0.078125,0.140625 0.296875,0.40625 0.71875,0.40625 0.84375,0 1.78125,-0.9375 1.78125,-1.96875 0,-0.8125 -0.5625,-1.171875 -1.03125,-1.171875 -0.4375,0 -0.8125,0.296875 -1,0.5 -0.109375,-0.40625 -0.5,-0.5 -0.71875,-0.5 -0.265625,0 -0.4375,0.1875 -0.546875,0.375 -0.140625,0.234375 -0.25,0.65625 -0.25,0.703125 0,0.078125 0.09375,0.078125 0.125,0.078125 0.09375,0 0.09375,-0.015625 0.140625,-0.203125 0.109375,-0.40625 0.25,-0.75 0.515625,-0.75 0.1875,0 0.234375,0.15625 0.234375,0.34375 0,0.078125 -0.015625,0.15625 -0.03125,0.203125 z M 1.84375,-2.234375 C 2.25,-2.78125 2.59375,-2.875 2.8125,-2.875 c 0.28125,0 0.515625,0.203125 0.515625,0.671875 0,0.28125 -0.15625,1 -0.359375,1.40625 -0.1875,0.34375 -0.515625,0.671875 -0.875,0.671875 -0.5,0 -0.625,-0.53125 -0.625,-0.609375 0,-0.03125 0.015625,-0.078125 0.015625,-0.109375 z m 0,0"
             style="stroke:none;stroke-width:0"
             inkscape:connector-curvature="0" />
          <path
             id="path1946"
             transform="translate(174.7124,136.259)"
             d="m 1.71875,-2.75 h 0.703125 c 0.140625,0 0.21875,0 0.21875,-0.15625 C 2.640625,-3 2.5625,-3 2.4375,-3 H 1.78125 l 0.25,-1.03125 C 2.046875,-4.0625 2.0625,-4.109375 2.0625,-4.125 c 0,-0.140625 -0.109375,-0.234375 -0.25,-0.234375 -0.171875,0 -0.265625,0.125 -0.328125,0.296875 C 1.4375,-3.875 1.53125,-4.21875 1.21875,-3 H 0.515625 c -0.125,0 -0.21875,0 -0.21875,0.15625 C 0.296875,-2.75 0.375,-2.75 0.5,-2.75 H 1.15625 L 0.75,-1.109375 C 0.703125,-0.9375 0.640625,-0.6875 0.640625,-0.59375 c 0,0.40625 0.359375,0.65625 0.75,0.65625 0.78125,0 1.21875,-0.96875 1.21875,-1.0625 0,-0.09375 -0.09375,-0.09375 -0.109375,-0.09375 -0.09375,0 -0.09375,0.015625 -0.15625,0.140625 -0.1875,0.4375 -0.546875,0.828125 -0.921875,0.828125 -0.15625,0 -0.25,-0.09375 -0.25,-0.34375 0,-0.0625 0.03125,-0.21875 0.046875,-0.28125 z m 0,0"
             style="stroke:none;stroke-width:0"
             inkscape:connector-curvature="0" />
        </g>
      </g>
    </g>
    <path
       style="fill:none;stroke:#000000;stroke-width:0.26499999;stroke-linecap:butt;stroke-linejoin:miter;stroke-miterlimit:4;stroke-dasharray:none;stroke-opacity:1;marker-end:url(#Arrow1Lend)"
       d="m 86.72896,127.08814 13.106855,19.43911"
       id="path1966"
       inkscape:connector-curvature="0"
       sodipodi:nodetypes="cc" />
    <path
       style="fill:none;stroke:#000000;stroke-width:0.26499999;stroke-linecap:butt;stroke-linejoin:miter;stroke-miterlimit:4;stroke-dasharray:none;stroke-opacity:1;marker-end:url(#Arrow1Lend-6)"
       d="M 70.508871,126.99802 60.085352,146.77597"
       id="path1966-3"
       inkscape:connector-curvature="0"
       sodipodi:nodetypes="cc" />
    <g
       id="g3778"
       ns1:jacobian_sqrt="0.441769"
       ns1:alignment="middle center"
       ns1:scale="1.25225755532"
       ns1:preamble="/home/jtorde/.config/inkscape/extensions/textext/default_packages.tex"
       ns1:text="$\\boldsymbol{A}_{opt}$"
       ns1:pdfconverter="pdf2svg"
       ns1:texconverter="pdflatex"
       ns1:version="0.11.0"
       transform="matrix(0.441769,0,0,0.441769,7.5061881,64.576215)">
      <g
         id="g3776">
        <g
           id="g3766"
           style="fill:#000000;fill-opacity:1">
          <path
             id="path3764"
             transform="translate(148.712,134.765)"
             d="m 6.4375,-6.796875 c -0.046875,-0.25 -0.09375,-0.296875 -0.34375,-0.296875 -0.21875,0 -0.296875,0.046875 -0.4375,0.25 l -3.921875,6 c -0.125,0.1875 -0.234375,0.359375 -0.96875,0.375 -0.140625,0 -0.3125,0 -0.3125,0.296875 0,0.078125 0.0625,0.171875 0.1875,0.171875 0.296875,0 0.640625,-0.03125 0.9375,-0.03125 0.375,0 0.75,0.03125 1.109375,0.03125 0.078125,0 0.265625,0 0.265625,-0.296875 0,-0.171875 -0.171875,-0.171875 -0.25,-0.171875 -0.078125,0 -0.359375,0 -0.578125,-0.109375 L 3.046875,-1.96875 h 2.6875 l 0.234375,1.453125 c -0.203125,0.03125 -0.5,0.046875 -0.65625,0.046875 -0.203125,0 -0.375,0 -0.375,0.296875 C 4.9375,-0.046875 5.046875,0 5.15625,0 5.5,0 6.3125,-0.03125 6.65625,-0.03125 c 0.21875,0 0.453125,0.015625 0.6875,0.015625 C 7.5625,-0.015625 7.8125,0 8.03125,0 8.125,0 8.3125,0 8.3125,-0.296875 c 0,-0.171875 -0.140625,-0.171875 -0.390625,-0.171875 -0.140625,0 -0.25,0 -0.390625,-0.015625 -0.125,0 -0.140625,-0.015625 -0.171875,-0.1875 z m -1.21875,1.484375 0.4375,2.875 h -2.3125 z m 0,0"
             style="stroke:none;stroke-width:0"
             inkscape:connector-curvature="0" />
        </g>
        <g
           id="g3774"
           style="fill:#000000;fill-opacity:1">
          <path
             id="path3768"
             transform="translate(157.374,136.259)"
             d="m 3.703125,-1.859375 c 0,-0.765625 -0.578125,-1.21875 -1.265625,-1.21875 -1.03125,0 -2,0.96875 -2,1.921875 0,0.703125 0.5,1.21875 1.265625,1.21875 1,0 2,-0.90625 2,-1.921875 z m -2,1.734375 c -0.34375,0 -0.6875,-0.21875 -0.6875,-0.78125 0,-0.28125 0.125,-0.96875 0.40625,-1.359375 C 1.71875,-2.703125 2.125,-2.875 2.4375,-2.875 c 0.375,0 0.6875,0.25 0.6875,0.765625 C 3.125,-1.9375 3.046875,-1.25 2.734375,-0.765625 2.46875,-0.34375 2.0625,-0.125 1.703125,-0.125 Z m 0,0"
             style="stroke:none;stroke-width:0"
             inkscape:connector-curvature="0" />
          <path
             id="path3770"
             transform="translate(161.30653,136.259)"
             d="m 0.515625,0.84375 c -0.046875,0.203125 -0.0625,0.25 -0.328125,0.25 -0.09375,0 -0.1875,0 -0.1875,0.15625 0,0.078125 0.0625,0.109375 0.09375,0.109375 0.171875,0 0.40625,-0.03125 0.59375,-0.03125 0.234375,0 0.5,0.03125 0.734375,0.03125 0.0625,0 0.140625,-0.03125 0.140625,-0.15625 0,-0.109375 -0.09375,-0.109375 -0.1875,-0.109375 -0.15625,0 -0.34375,0 -0.34375,-0.078125 0,-0.03125 0.0625,-0.21875 0.078125,-0.3125 0.09375,-0.375 0.1875,-0.75 0.265625,-1.046875 0.078125,0.140625 0.296875,0.40625 0.71875,0.40625 0.84375,0 1.78125,-0.9375 1.78125,-1.96875 0,-0.8125 -0.5625,-1.171875 -1.03125,-1.171875 -0.4375,0 -0.8125,0.296875 -1,0.5 -0.109375,-0.40625 -0.5,-0.5 -0.71875,-0.5 -0.265625,0 -0.4375,0.1875 -0.546875,0.375 -0.140625,0.234375 -0.25,0.65625 -0.25,0.703125 0,0.078125 0.09375,0.078125 0.125,0.078125 0.09375,0 0.09375,-0.015625 0.140625,-0.203125 0.109375,-0.40625 0.25,-0.75 0.515625,-0.75 0.1875,0 0.234375,0.15625 0.234375,0.34375 0,0.078125 -0.015625,0.15625 -0.03125,0.203125 z M 1.84375,-2.234375 C 2.25,-2.78125 2.59375,-2.875 2.8125,-2.875 c 0.28125,0 0.515625,0.203125 0.515625,0.671875 0,0.28125 -0.15625,1 -0.359375,1.40625 -0.1875,0.34375 -0.515625,0.671875 -0.875,0.671875 -0.5,0 -0.625,-0.53125 -0.625,-0.609375 0,-0.03125 0.015625,-0.078125 0.015625,-0.109375 z m 0,0"
             style="stroke:none;stroke-width:0"
             inkscape:connector-curvature="0" />
          <path
             id="path3772"
             transform="translate(165.4134,136.259)"
             d="m 1.71875,-2.75 h 0.703125 c 0.140625,0 0.21875,0 0.21875,-0.15625 C 2.640625,-3 2.5625,-3 2.4375,-3 H 1.78125 l 0.25,-1.03125 C 2.046875,-4.0625 2.0625,-4.109375 2.0625,-4.125 c 0,-0.140625 -0.109375,-0.234375 -0.25,-0.234375 -0.171875,0 -0.265625,0.125 -0.328125,0.296875 C 1.4375,-3.875 1.53125,-4.21875 1.21875,-3 H 0.515625 c -0.125,0 -0.21875,0 -0.21875,0.15625 C 0.296875,-2.75 0.375,-2.75 0.5,-2.75 H 1.15625 L 0.75,-1.109375 C 0.703125,-0.9375 0.640625,-0.6875 0.640625,-0.59375 c 0,0.40625 0.359375,0.65625 0.75,0.65625 0.78125,0 1.21875,-0.96875 1.21875,-1.0625 0,-0.09375 -0.09375,-0.09375 -0.109375,-0.09375 -0.09375,0 -0.09375,0.015625 -0.15625,0.140625 -0.1875,0.4375 -0.546875,0.828125 -0.921875,0.828125 -0.15625,0 -0.25,-0.09375 -0.25,-0.34375 0,-0.0625 0.03125,-0.21875 0.046875,-0.28125 z m 0,0"
             style="stroke:none;stroke-width:0"
             inkscape:connector-curvature="0" />
        </g>
      </g>
    </g>
    <g
       id="g5142"
       ns1:jacobian_sqrt="0.441769"
       ns1:alignment="middle center"
       ns1:scale="1.25225755532"
       ns1:preamble="/home/jtorde/.config/inkscape/extensions/textext/default_packages.tex"
       ns1:text="$\\boldsymbol{P}\\boldsymbol{A}_{opt}^{-1}$"
       ns1:pdfconverter="pdf2svg"
       ns1:texconverter="pdflatex"
       ns1:version="0.11.0"
       transform="matrix(0.441769,0,0,0.441769,-14.157356,76.351423)">
      <g
         id="surface1">
        <g
           id="g5119"
           style="fill:#000000;fill-opacity:1">
          <path
             id="path5117"
             transform="translate(148.712,134.765)"
             d="M 3.609375,-3.015625 H 5.375 c 1.828125,0 3.09375,-1.109375 3.09375,-2.28125 0,-1.015625 -0.921875,-1.546875 -2.234375,-1.546875 h -3.84375 c -0.1875,0 -0.359375,0 -0.359375,0.296875 0,0.171875 0.125,0.171875 0.40625,0.171875 0.21875,0 0.40625,0.015625 0.609375,0.03125 L 1.625,-0.671875 C 1.578125,-0.515625 1.578125,-0.5 1.390625,-0.484375 1.21875,-0.46875 1.03125,-0.46875 0.875,-0.46875 c -0.265625,0 -0.28125,0 -0.3125,0.03125 -0.140625,0.0625 -0.140625,0.203125 -0.140625,0.265625 0,0 0,0.171875 0.21875,0.171875 0.25,0 0.515625,-0.015625 0.765625,-0.015625 0.25,0 0.5,-0.015625 0.75,-0.015625 0.265625,0 0.53125,0.015625 0.78125,0.015625 C 3.1875,-0.015625 3.453125,0 3.703125,0 3.8125,0 4,0 4,-0.28125 4,-0.46875 3.875,-0.46875 3.59375,-0.46875 3.375,-0.46875 3.1875,-0.484375 2.984375,-0.484375 Z M 4.34375,-6.1875 C 4.390625,-6.34375 4.390625,-6.34375 4.453125,-6.359375 4.546875,-6.375 4.609375,-6.375 4.71875,-6.375 h 1.046875 c 0.546875,0 1.296875,0.109375 1.296875,0.796875 0,0.109375 -0.125,1.125 -0.5,1.609375 -0.203125,0.265625 -0.65625,0.546875 -1.546875,0.546875 H 3.65625 Z m 0,0"
             style="stroke:none;stroke-width:0"
             inkscape:connector-curvature="0" />
        </g>
        <g
           id="g5123"
           style="fill:#000000;fill-opacity:1">
          <path
             id="path5121"
             transform="translate(157.50997,134.765)"
             d="m 6.4375,-6.796875 c -0.046875,-0.25 -0.09375,-0.296875 -0.34375,-0.296875 -0.21875,0 -0.296875,0.046875 -0.4375,0.25 l -3.921875,6 c -0.125,0.1875 -0.234375,0.359375 -0.96875,0.375 -0.140625,0 -0.3125,0 -0.3125,0.296875 0,0.078125 0.0625,0.171875 0.1875,0.171875 0.296875,0 0.640625,-0.03125 0.9375,-0.03125 0.375,0 0.75,0.03125 1.109375,0.03125 0.078125,0 0.265625,0 0.265625,-0.296875 0,-0.171875 -0.171875,-0.171875 -0.25,-0.171875 -0.078125,0 -0.359375,0 -0.578125,-0.109375 L 3.046875,-1.96875 h 2.6875 l 0.234375,1.453125 c -0.203125,0.03125 -0.5,0.046875 -0.65625,0.046875 -0.203125,0 -0.375,0 -0.375,0.296875 C 4.9375,-0.046875 5.046875,0 5.15625,0 5.5,0 6.3125,-0.03125 6.65625,-0.03125 c 0.21875,0 0.453125,0.015625 0.6875,0.015625 C 7.5625,-0.015625 7.8125,0 8.03125,0 8.125,0 8.3125,0 8.3125,-0.296875 c 0,-0.171875 -0.140625,-0.171875 -0.390625,-0.171875 -0.140625,0 -0.25,0 -0.390625,-0.015625 -0.125,0 -0.140625,-0.015625 -0.171875,-0.1875 z m -1.21875,1.484375 0.4375,2.875 h -2.3125 z m 0,0"
             style="stroke:none;stroke-width:0"
             inkscape:connector-curvature="0" />
        </g>
        <g
           id="g5127"
           style="fill:#000000;fill-opacity:1">
          <path
             id="path5125"
             transform="translate(166.169,130.392)"
             d="m 5.1875,-1.578125 c 0.109375,0 0.28125,0 0.28125,-0.15625 0,-0.1875 -0.171875,-0.1875 -0.28125,-0.1875 H 1.03125 c -0.109375,0 -0.28125,0 -0.28125,0.171875 0,0.171875 0.15625,0.171875 0.28125,0.171875 z m 0,0"
             style="stroke:none;stroke-width:0"
             inkscape:connector-curvature="0" />
        </g>
        <g
           id="g5131"
           style="fill:#000000;fill-opacity:1">
          <path
             id="path5129"
             transform="translate(172.396,130.392)"
             d="m 2.328125,-4.4375 c 0,-0.1875 0,-0.1875 -0.203125,-0.1875 -0.453125,0.4375 -1.078125,0.4375 -1.359375,0.4375 v 0.25 c 0.15625,0 0.625,0 1,-0.1875 v 3.546875 c 0,0.234375 0,0.328125 -0.6875,0.328125 H 0.8125 V 0 c 0.125,0 0.984375,-0.03125 1.234375,-0.03125 0.21875,0 1.09375,0.03125 1.25,0.03125 V -0.25 H 3.03125 c -0.703125,0 -0.703125,-0.09375 -0.703125,-0.328125 z m 0,0"
             style="stroke:none;stroke-width:0"
             inkscape:connector-curvature="0" />
        </g>
        <g
           id="g5139"
           style="fill:#000000;fill-opacity:1">
          <path
             id="path5133"
             transform="translate(166.169,137.228)"
             d="m 3.703125,-1.859375 c 0,-0.765625 -0.578125,-1.21875 -1.265625,-1.21875 -1.03125,0 -2,0.96875 -2,1.921875 0,0.703125 0.5,1.21875 1.265625,1.21875 1,0 2,-0.90625 2,-1.921875 z m -2,1.734375 c -0.34375,0 -0.6875,-0.21875 -0.6875,-0.78125 0,-0.28125 0.125,-0.96875 0.40625,-1.359375 C 1.71875,-2.703125 2.125,-2.875 2.4375,-2.875 c 0.375,0 0.6875,0.25 0.6875,0.765625 C 3.125,-1.9375 3.046875,-1.25 2.734375,-0.765625 2.46875,-0.34375 2.0625,-0.125 1.703125,-0.125 Z m 0,0"
             style="stroke:none;stroke-width:0"
             inkscape:connector-curvature="0" />
          <path
             id="path5135"
             transform="translate(170.10153,137.228)"
             d="m 0.515625,0.84375 c -0.046875,0.203125 -0.0625,0.25 -0.328125,0.25 -0.09375,0 -0.1875,0 -0.1875,0.15625 0,0.078125 0.0625,0.109375 0.09375,0.109375 0.171875,0 0.40625,-0.03125 0.59375,-0.03125 0.234375,0 0.5,0.03125 0.734375,0.03125 0.0625,0 0.140625,-0.03125 0.140625,-0.15625 0,-0.109375 -0.09375,-0.109375 -0.1875,-0.109375 -0.15625,0 -0.34375,0 -0.34375,-0.078125 0,-0.03125 0.0625,-0.21875 0.078125,-0.3125 0.09375,-0.375 0.1875,-0.75 0.265625,-1.046875 0.078125,0.140625 0.296875,0.40625 0.71875,0.40625 0.84375,0 1.78125,-0.9375 1.78125,-1.96875 0,-0.8125 -0.5625,-1.171875 -1.03125,-1.171875 -0.4375,0 -0.8125,0.296875 -1,0.5 -0.109375,-0.40625 -0.5,-0.5 -0.71875,-0.5 -0.265625,0 -0.4375,0.1875 -0.546875,0.375 -0.140625,0.234375 -0.25,0.65625 -0.25,0.703125 0,0.078125 0.09375,0.078125 0.125,0.078125 0.09375,0 0.09375,-0.015625 0.140625,-0.203125 0.109375,-0.40625 0.25,-0.75 0.515625,-0.75 0.1875,0 0.234375,0.15625 0.234375,0.34375 0,0.078125 -0.015625,0.15625 -0.03125,0.203125 z M 1.84375,-2.234375 C 2.25,-2.78125 2.59375,-2.875 2.8125,-2.875 c 0.28125,0 0.515625,0.203125 0.515625,0.671875 0,0.28125 -0.15625,1 -0.359375,1.40625 -0.1875,0.34375 -0.515625,0.671875 -0.875,0.671875 -0.5,0 -0.625,-0.53125 -0.625,-0.609375 0,-0.03125 0.015625,-0.078125 0.015625,-0.109375 z m 0,0"
             style="stroke:none;stroke-width:0"
             inkscape:connector-curvature="0" />
          <path
             id="path5137"
             transform="translate(174.2084,137.228)"
             d="m 1.71875,-2.75 h 0.703125 c 0.140625,0 0.21875,0 0.21875,-0.15625 C 2.640625,-3 2.5625,-3 2.4375,-3 H 1.78125 l 0.25,-1.03125 C 2.046875,-4.0625 2.0625,-4.109375 2.0625,-4.125 c 0,-0.140625 -0.109375,-0.234375 -0.25,-0.234375 -0.171875,0 -0.265625,0.125 -0.328125,0.296875 C 1.4375,-3.875 1.53125,-4.21875 1.21875,-3 H 0.515625 c -0.125,0 -0.21875,0 -0.21875,0.15625 C 0.296875,-2.75 0.375,-2.75 0.5,-2.75 H 1.15625 L 0.75,-1.109375 C 0.703125,-0.9375 0.640625,-0.6875 0.640625,-0.59375 c 0,0.40625 0.359375,0.65625 0.75,0.65625 0.78125,0 1.21875,-0.96875 1.21875,-1.0625 0,-0.09375 -0.09375,-0.09375 -0.109375,-0.09375 -0.09375,0 -0.09375,0.015625 -0.15625,0.140625 -0.1875,0.4375 -0.546875,0.828125 -0.921875,0.828125 -0.15625,0 -0.25,-0.09375 -0.25,-0.34375 0,-0.0625 0.03125,-0.21875 0.046875,-0.28125 z m 0,0"
             style="stroke:none;stroke-width:0"
             inkscape:connector-curvature="0" />
        </g>
      </g>
    </g>
    <rect
       style="opacity:1;vector-effect:none;fill:none;fill-opacity:1;stroke:#000000;stroke-width:0.26499999;stroke-linecap:butt;stroke-linejoin:miter;stroke-miterlimit:4;stroke-dasharray:none;stroke-dashoffset:0;stroke-opacity:1"
       id="rect5166"
       width="30.468725"
       height="13.229842"
       x="62.440845"
       y="113.75332" />
    <rect
       style="opacity:1;vector-effect:none;fill:none;fill-opacity:1;stroke:#000000;stroke-width:0.22595517;stroke-linecap:butt;stroke-linejoin:miter;stroke-miterlimit:4;stroke-dasharray:none;stroke-dashoffset:0;stroke-opacity:1"
       id="rect5166-6"
       width="24.313887"
       height="12.053341"
       x="89.991508"
       y="147.02773" />
    <rect
       style="opacity:1;vector-effect:none;fill:none;fill-opacity:1;stroke:#000000;stroke-width:0.22595517;stroke-linecap:butt;stroke-linejoin:miter;stroke-miterlimit:4;stroke-dasharray:none;stroke-dashoffset:0;stroke-opacity:1"
       id="rect5166-6-8"
       width="24.313887"
       height="12.053341"
       x="45.706909"
       y="147.18233" />
  </g>
</svg>
