<?xml version="1.0" encoding="UTF-8" standalone="no"?>
<svg
   xmlns:ns1="http://www.iki.fi/pav/software/textext/"
   xmlns:dc="http://purl.org/dc/elements/1.1/"
   xmlns:cc="http://creativecommons.org/ns#"
   xmlns:rdf="http://www.w3.org/1999/02/22-rdf-syntax-ns#"
   xmlns:svg="http://www.w3.org/2000/svg"
   xmlns="http://www.w3.org/2000/svg"
   xmlns:sodipodi="http://sodipodi.sourceforge.net/DTD/sodipodi-0.dtd"
   xmlns:inkscape="http://www.inkscape.org/namespaces/inkscape"
   style="font-style:normal;font-weight:normal;font-size:12px;font-family:Dialog;color-interpolation:auto;fill:#000000;fill-opacity:1;stroke:#000000;stroke-width:1;stroke-linecap:square;stroke-linejoin:miter;stroke-miterlimit:10;stroke-dasharray:none;stroke-dashoffset:0;stroke-opacity:1;color-rendering:auto;image-rendering:auto;shape-rendering:auto;text-rendering:auto"
   width="456.20615"
   height="367.56308"
   version="1.1"
   id="svg233"
   sodipodi:docname="comparison2d_modified.svg"
   inkscape:version="0.92.4 (unknown)">
  <metadata
     id="metadata237">
    <rdf:RDF>
      <cc:Work
         rdf:about="">
        <dc:format>image/svg+xml</dc:format>
        <dc:type
           rdf:resource="http://purl.org/dc/dcmitype/StillImage" />
        <dc:title></dc:title>
      </cc:Work>
    </rdf:RDF>
  </metadata>
  <sodipodi:namedview
     pagecolor="#ffffff"
     bordercolor="#666666"
     borderopacity="1"
     objecttolerance="10"
     gridtolerance="10"
     guidetolerance="10"
     inkscape:pageopacity="0"
     inkscape:pageshadow="2"
     inkscape:window-width="2493"
     inkscape:window-height="1376"
     id="namedview235"
     showgrid="false"
     inkscape:zoom="1.3086189"
     inkscape:cx="201.7198"
     inkscape:cy="225.04135"
     inkscape:window-x="67"
     inkscape:window-y="27"
     inkscape:window-maximized="1"
     inkscape:current-layer="svg233"
     fit-margin-top="0"
     fit-margin-left="0"
     fit-margin-right="0"
     fit-margin-bottom="0" />
  <!--Generated by the Batik Graphics2D SVG Generator-->
  <defs
     id="genericDefs">
    <clipPath
       clipPathUnits="userSpaceOnUse"
       id="clipPath1233">
      <rect
         style="opacity:1;vector-effect:none;fill:none;fill-opacity:1;stroke:#000000;stroke-width:0.84281164;stroke-linecap:butt;stroke-linejoin:miter;stroke-miterlimit:4;stroke-dasharray:none;stroke-dashoffset:0;stroke-opacity:1"
         id="rect1235"
         width="456.20615"
         height="367.56308"
         x="1274.6262"
         y="395.54596" />
    </clipPath>
  </defs>
  <g
     id="g231"
     clip-path="url(#clipPath1233)"
     transform="translate(-1274.6262,-395.54596)">
    <defs
       id="defs1">
      <clipPath
         clipPathUnits="userSpaceOnUse"
         id="clipPath1">
        <path
           d="M 0,0 H 3000 V 1000 H 0 Z"
           id="path3"
           inkscape:connector-curvature="0" />
      </clipPath>
    </defs>
    <g
       style="fill:#ffffff;stroke:#ffffff"
       id="g9">
      <rect
         x="0"
         y="0"
         width="3000"
         style="stroke:none"
         height="1000"
         clip-path="url(#clipPath1)"
         id="rect7" />
    </g>
    <g
       style="color-interpolation:sRGB;fill:#ffffff;stroke:#ffffff;color-rendering:optimizeSpeed;image-rendering:optimizeSpeed;shape-rendering:crispEdges;text-rendering:optimizeSpeed"
       id="g15">
      <rect
         x="0"
         width="3000"
         height="1000"
         y="0"
         style="stroke:none"
         id="rect11" />
      <path
         style="stroke:none"
         d="m 1206.125,890 h 692.75 V 75 h -692.75 z"
         id="path13"
         inkscape:connector-curvature="0" />
    </g>
    <g
       style="color-interpolation:linearRGB;fill:#262626;stroke:#262626;stroke-width:0.66670001;stroke-linejoin:round;color-rendering:optimizeQuality;image-rendering:optimizeQuality;text-rendering:geometricPrecision"
       id="g37">
      <line
         y2="890"
         style="fill:none"
         x1="1206.125"
         x2="1898.875"
         y1="890"
         id="line17" />
      <line
         y2="881.84998"
         style="fill:none"
         x1="1206.125"
         x2="1206.125"
         y1="890"
         id="line19" />
      <line
         y2="881.84998"
         style="fill:none"
         x1="1287.625"
         x2="1287.625"
         y1="890"
         id="line21" />
      <line
         y2="881.84998"
         style="fill:none"
         x1="1369.125"
         x2="1369.125"
         y1="890"
         id="line23" />
      <line
         y2="881.84998"
         style="fill:none"
         x1="1450.625"
         x2="1450.625"
         y1="890"
         id="line25" />
      <line
         y2="881.84998"
         style="fill:none"
         x1="1532.125"
         x2="1532.125"
         y1="890"
         id="line27" />
      <line
         y2="881.84998"
         style="fill:none"
         x1="1613.625"
         x2="1613.625"
         y1="890"
         id="line29" />
      <line
         y2="881.84998"
         style="fill:none"
         x1="1695.125"
         x2="1695.125"
         y1="890"
         id="line31" />
      <line
         y2="881.84998"
         style="fill:none"
         x1="1776.625"
         x2="1776.625"
         y1="890"
         id="line33" />
      <line
         y2="881.84998"
         style="fill:none"
         x1="1858.125"
         x2="1858.125"
         y1="890"
         id="line35" />
    </g>
    <g
       transform="translate(1206.125,895.3333)"
       style="font-size:13.33329964px;font-family:mwa_cmr10;color-interpolation:linearRGB;fill:#262626;stroke:#262626;color-rendering:optimizeQuality;image-rendering:optimizeQuality;text-rendering:geometricPrecision"
       id="g47">
      <path
         style="stroke:none"
         d="M -10.6001,8.7937 V 7.9812 h 3.4531 v 0.8125 z"
         id="path39"
         inkscape:connector-curvature="0" />
      <path
         style="stroke:none"
         d="m -3.0463,11.4812 q -1.5938,0 -2.1641,-1.3125 -0.5703,-1.3125 -0.5703,-3.1094 0,-1.1406 0.2031,-2.1328 0.2031,-0.9922 0.8125,-1.6875 0.6094,-0.6953 1.7188,-0.6953 0.8593,0 1.4062,0.4141 0.5469,0.414 0.8281,1.0781 0.2813,0.6641 0.3907,1.4219 0.1093,0.7578 0.1093,1.6015 0,1.1094 -0.2109,2.086 -0.2109,0.9765 -0.8125,1.6562 -0.6016,0.6797 -1.7109,0.6797 z m 0,-0.3281 q 0.7187,0 1.0781,-0.7422 0.3594,-0.7422 0.4375,-1.6484 0.0781,-0.9063 0.0781,-1.9219 0,-0.9688 -0.0781,-1.7969 -0.0781,-0.8281 -0.4297,-1.5 -0.3516,-0.6719 -1.0859,-0.6719 -0.7344,0 -1.0938,0.6797 -0.3594,0.6797 -0.4375,1.5 -0.0781,0.8203 -0.0781,1.7891 0,0.7344 0.0312,1.375 0.0313,0.6406 0.1875,1.3203 0.1563,0.6797 0.4922,1.1484 0.336,0.4688 0.8985,0.4688 z"
         id="path41"
         inkscape:connector-curvature="0" />
      <path
         style="stroke:none"
         d="m 1.4641,10.4812 q 0,-0.2969 0.2188,-0.5 0.2187,-0.2031 0.5,-0.2031 0.1718,0 0.3437,0.0937 0.1719,0.0938 0.2656,0.2657 0.0938,0.1718 0.0938,0.3437 0,0.2813 -0.211,0.5 Q 2.4641,11.2 2.1829,11.2 q -0.2813,0 -0.5,-0.2188 -0.2188,-0.2187 -0.2188,-0.5 z"
         id="path43"
         inkscape:connector-curvature="0" />
      <path
         style="stroke:none"
         d="m 4.7147,11.2 v -0.3438 q 0,-0.0312 0.0313,-0.0781 L 6.7616,8.5437 q 0.4687,-0.5 0.75,-0.8359 Q 7.7928,7.3718 8.0741,6.9343 8.3553,6.4968 8.5194,6.0437 8.6835,5.5906 8.6835,5.0906 8.6835,4.5593 8.4803,4.0671 8.2772,3.575 7.8866,3.2859 7.496,2.9968 6.9491,2.9968 6.3866,2.9968 5.9335,3.3406 5.4803,3.6843 5.2928,4.2156 5.3553,4.2 5.4335,4.2 q 0.2968,0 0.5,0.1953 0.2031,0.1953 0.2031,0.5078 0,0.2969 -0.2031,0.5078 -0.2032,0.2109 -0.5,0.2109 -0.2969,0 -0.5079,-0.2109 Q 4.7147,5.2 4.7147,4.9031 4.7147,4.4187 4.9022,3.989 5.0897,3.5593 5.4335,3.2312 5.7772,2.9031 6.2147,2.7234 6.6522,2.5437 7.1366,2.5437 q 0.75,0 1.3906,0.3125 0.6406,0.3125 1.0156,0.8906 0.375,0.5782 0.375,1.3438 0,0.5625 -0.25,1.0703 Q 9.4178,6.6687 9.035,7.0828 8.6522,7.4968 8.0428,8.0281 7.4335,8.5593 7.246,8.7312 l -1.4688,1.4219 h 1.25 q 0.9219,0 1.5391,-0.0156 Q 9.1835,10.1218 9.2147,10.075 9.371,9.9187 9.5272,8.8875 H 9.9178 L 9.5428,11.2 Z"
         id="path45"
         inkscape:connector-curvature="0" />
    </g>
    <g
       transform="translate(1287.625,895.3333)"
       style="font-size:13.33329964px;font-family:mwa_cmr10;color-interpolation:linearRGB;fill:#262626;stroke:#262626;color-rendering:optimizeQuality;image-rendering:optimizeQuality;text-rendering:geometricPrecision"
       id="g51">
      <path
         style="stroke:none"
         d="m -0.0833,11.4812 q -1.5938,0 -2.1641,-1.3125 -0.5703,-1.3125 -0.5703,-3.1094 0,-1.1406 0.2031,-2.1328 0.2031,-0.9922 0.8125,-1.6875 0.6094,-0.6953 1.7188,-0.6953 0.8593,0 1.4062,0.4141 Q 1.8698,3.3718 2.151,4.0359 2.4323,4.7 2.5417,5.4578 2.651,6.2156 2.651,7.0593 q 0,1.1094 -0.2109,2.086 -0.2109,0.9765 -0.8125,1.6562 -0.6016,0.6797 -1.7109,0.6797 z m 0,-0.3281 q 0.7187,0 1.0781,-0.7422 Q 1.3542,9.6687 1.4323,8.7625 1.5104,7.8562 1.5104,6.8406 1.5104,5.8718 1.4323,5.0437 1.3542,4.2156 1.0026,3.5437 0.651,2.8718 -0.0833,2.8718 q -0.7344,0 -1.0938,0.6797 -0.3594,0.6797 -0.4375,1.5 -0.0781,0.8203 -0.0781,1.7891 0,0.7344 0.0312,1.375 0.0313,0.6406 0.1875,1.3203 0.1563,0.6797 0.4922,1.1484 0.336,0.4688 0.8985,0.4688 z"
         id="path49"
         inkscape:connector-curvature="0" />
    </g>
    <g
       transform="translate(1369.125,895.3333)"
       style="font-size:13.33329964px;font-family:mwa_cmr10;color-interpolation:linearRGB;fill:#262626;stroke:#262626;color-rendering:optimizeQuality;image-rendering:optimizeQuality;text-rendering:geometricPrecision"
       id="g59">
      <path
         style="stroke:none"
         d="m -5.2685,11.4812 q -1.5938,0 -2.1641,-1.3125 -0.5703,-1.3125 -0.5703,-3.1094 0,-1.1406 0.2031,-2.1328 0.2031,-0.9922 0.8125,-1.6875 0.6094,-0.6953 1.7188,-0.6953 0.8593,0 1.4062,0.4141 0.5469,0.414 0.8281,1.0781 0.2813,0.6641 0.3907,1.4219 0.1093,0.7578 0.1093,1.6015 0,1.1094 -0.2109,2.086 -0.2109,0.9765 -0.8125,1.6562 -0.6016,0.6797 -1.7109,0.6797 z m 0,-0.3281 q 0.7187,0 1.0781,-0.7422 0.3594,-0.7422 0.4375,-1.6484 0.0781,-0.9063 0.0781,-1.9219 0,-0.9688 -0.0781,-1.7969 -0.0781,-0.8281 -0.4297,-1.5 -0.3516,-0.6719 -1.0859,-0.6719 -0.7344,0 -1.0938,0.6797 -0.3594,0.6797 -0.4375,1.5 -0.0781,0.8203 -0.0781,1.7891 0,0.7344 0.0312,1.375 0.0313,0.6406 0.1875,1.3203 0.1563,0.6797 0.4922,1.1484 0.336,0.4688 0.8985,0.4688 z"
         id="path53"
         inkscape:connector-curvature="0" />
      <path
         style="stroke:none"
         d="m -0.7581,10.4812 q 0,-0.2969 0.2188,-0.5 0.2187,-0.2031 0.5,-0.2031 0.1718,0 0.3437,0.0937 0.1719,0.0938 0.2656,0.2657 0.0938,0.1718 0.0938,0.3437 0,0.2813 -0.211,0.5 Q 0.2419,11.2 -0.0393,11.2 q -0.2813,0 -0.5,-0.2188 -0.2188,-0.2187 -0.2188,-0.5 z"
         id="path55"
         inkscape:connector-curvature="0" />
      <path
         style="stroke:none"
         d="m 2.4925,11.2 v -0.3438 q 0,-0.0312 0.0312,-0.0781 L 4.5394,8.5437 q 0.4687,-0.5 0.75,-0.8359 Q 5.5706,7.3718 5.8519,6.9343 6.1331,6.4968 6.2972,6.0437 6.4612,5.5906 6.4612,5.0906 6.4612,4.5593 6.2581,4.0671 6.055,3.575 5.6644,3.2859 5.2737,2.9968 4.7269,2.9968 4.1644,2.9968 3.7112,3.3406 3.2581,3.6843 3.0706,4.2156 3.1331,4.2 3.2112,4.2 q 0.2969,0 0.5,0.1953 0.2032,0.1953 0.2032,0.5078 0,0.2969 -0.2032,0.5078 -0.2031,0.2109 -0.5,0.2109 -0.2968,0 -0.5078,-0.2109 Q 2.4925,5.2 2.4925,4.9031 2.4925,4.4187 2.68,3.989 2.8675,3.5593 3.2112,3.2312 3.555,2.9031 3.9925,2.7234 4.43,2.5437 4.9144,2.5437 q 0.75,0 1.3906,0.3125 0.6406,0.3125 1.0156,0.8906 0.375,0.5782 0.375,1.3438 0,0.5625 -0.25,1.0703 Q 7.1956,6.6687 6.8128,7.0828 6.43,7.4968 5.8206,8.0281 5.2112,8.5593 5.0237,8.7312 L 3.555,10.1531 h 1.25 q 0.9219,0 1.5391,-0.0156 Q 6.9612,10.1218 6.9925,10.075 7.1487,9.9187 7.305,8.8875 H 7.6956 L 7.3206,11.2 Z"
         id="path57"
         inkscape:connector-curvature="0" />
    </g>
    <g
       transform="translate(1450.625,895.3333)"
       style="font-size:13.33329964px;font-family:mwa_cmr10;color-interpolation:linearRGB;fill:#262626;stroke:#262626;color-rendering:optimizeQuality;image-rendering:optimizeQuality;text-rendering:geometricPrecision"
       id="g67">
      <path
         style="stroke:none"
         d="m -5.2685,11.4812 q -1.5938,0 -2.1641,-1.3125 -0.5703,-1.3125 -0.5703,-3.1094 0,-1.1406 0.2031,-2.1328 0.2031,-0.9922 0.8125,-1.6875 0.6094,-0.6953 1.7188,-0.6953 0.8593,0 1.4062,0.4141 0.5469,0.414 0.8281,1.0781 0.2813,0.6641 0.3907,1.4219 0.1093,0.7578 0.1093,1.6015 0,1.1094 -0.2109,2.086 -0.2109,0.9765 -0.8125,1.6562 -0.6016,0.6797 -1.7109,0.6797 z m 0,-0.3281 q 0.7187,0 1.0781,-0.7422 0.3594,-0.7422 0.4375,-1.6484 0.0781,-0.9063 0.0781,-1.9219 0,-0.9688 -0.0781,-1.7969 -0.0781,-0.8281 -0.4297,-1.5 -0.3516,-0.6719 -1.0859,-0.6719 -0.7344,0 -1.0938,0.6797 -0.3594,0.6797 -0.4375,1.5 -0.0781,0.8203 -0.0781,1.7891 0,0.7344 0.0312,1.375 0.0313,0.6406 0.1875,1.3203 0.1563,0.6797 0.4922,1.1484 0.336,0.4688 0.8985,0.4688 z"
         id="path61"
         inkscape:connector-curvature="0" />
      <path
         style="stroke:none"
         d="m -0.7581,10.4812 q 0,-0.2969 0.2188,-0.5 0.2187,-0.2031 0.5,-0.2031 0.1718,0 0.3437,0.0937 0.1719,0.0938 0.2656,0.2657 0.0938,0.1718 0.0938,0.3437 0,0.2813 -0.211,0.5 Q 0.2419,11.2 -0.0393,11.2 q -0.2813,0 -0.5,-0.2188 -0.2188,-0.2187 -0.2188,-0.5 z"
         id="path63"
         inkscape:connector-curvature="0" />
      <path
         style="stroke:none"
         d="M 2.2112,9.0593 V 8.5906 L 6.2269,2.6062 Q 6.2737,2.5437 6.3675,2.5437 H 6.555 q 0.1406,0 0.1406,0.1406 V 8.5906 H 7.9769 V 9.0593 H 6.6956 v 1.2657 q 0,0.2656 0.3828,0.3437 0.3828,0.0781 0.8828,0.0781 V 11.2 H 4.3831 v -0.4532 q 0.5,0 0.8828,-0.0781 0.3828,-0.0781 0.3828,-0.3437 V 9.0593 Z M 2.6487,8.5906 H 5.7269 V 3.9968 Z"
         id="path65"
         inkscape:connector-curvature="0" />
    </g>
    <g
       transform="translate(1532.125,895.3333)"
       style="font-size:13.33329964px;font-family:mwa_cmr10;color-interpolation:linearRGB;fill:#262626;stroke:#262626;color-rendering:optimizeQuality;image-rendering:optimizeQuality;text-rendering:geometricPrecision"
       id="g75">
      <path
         style="stroke:none"
         d="m -5.2685,11.4812 q -1.5938,0 -2.1641,-1.3125 -0.5703,-1.3125 -0.5703,-3.1094 0,-1.1406 0.2031,-2.1328 0.2031,-0.9922 0.8125,-1.6875 0.6094,-0.6953 1.7188,-0.6953 0.8593,0 1.4062,0.4141 0.5469,0.414 0.8281,1.0781 0.2813,0.6641 0.3907,1.4219 0.1093,0.7578 0.1093,1.6015 0,1.1094 -0.2109,2.086 -0.2109,0.9765 -0.8125,1.6562 -0.6016,0.6797 -1.7109,0.6797 z m 0,-0.3281 q 0.7187,0 1.0781,-0.7422 0.3594,-0.7422 0.4375,-1.6484 0.0781,-0.9063 0.0781,-1.9219 0,-0.9688 -0.0781,-1.7969 -0.0781,-0.8281 -0.4297,-1.5 -0.3516,-0.6719 -1.0859,-0.6719 -0.7344,0 -1.0938,0.6797 -0.3594,0.6797 -0.4375,1.5 -0.0781,0.8203 -0.0781,1.7891 0,0.7344 0.0312,1.375 0.0313,0.6406 0.1875,1.3203 0.1563,0.6797 0.4922,1.1484 0.336,0.4688 0.8985,0.4688 z"
         id="path69"
         inkscape:connector-curvature="0" />
      <path
         style="stroke:none"
         d="m -0.7581,10.4812 q 0,-0.2969 0.2188,-0.5 0.2187,-0.2031 0.5,-0.2031 0.1718,0 0.3437,0.0937 0.1719,0.0938 0.2656,0.2657 0.0938,0.1718 0.0938,0.3437 0,0.2813 -0.211,0.5 Q 0.2419,11.2 -0.0393,11.2 q -0.2813,0 -0.5,-0.2188 -0.2188,-0.2187 -0.2188,-0.5 z"
         id="path71"
         inkscape:connector-curvature="0" />
      <path
         style="stroke:none"
         d="m 5.1019,11.4812 q -0.8125,0 -1.3516,-0.4297 Q 3.2112,10.6218 2.9222,9.9421 2.6331,9.2625 2.5159,8.5125 2.3987,7.7625 2.3987,6.9968 2.3987,5.9656 2.7972,4.9343 3.1956,3.9031 3.9769,3.2234 4.7581,2.5437 5.8206,2.5437 q 0.4375,0 0.8281,0.1641 0.3907,0.164 0.6094,0.4922 0.2188,0.3281 0.2188,0.7968 0,0.2657 -0.1875,0.4453 -0.1875,0.1797 -0.4532,0.1797 -0.25,0 -0.4296,-0.1797 -0.1797,-0.1796 -0.1797,-0.4453 0,-0.25 0.1797,-0.4375 Q 6.5862,3.3718 6.8362,3.3718 H 6.9144 Q 6.7425,3.1375 6.4456,3.0281 6.1487,2.9187 5.8206,2.9187 5.43,2.9187 5.0941,3.0906 4.7581,3.2625 4.4925,3.5515 4.2269,3.8406 4.0472,4.1921 3.8675,4.5437 3.7737,4.9968 3.68,5.45 3.6487,5.8406 3.6175,6.2312 3.6175,6.825 3.8519,6.2937 4.2737,5.9578 q 0.4219,-0.336 0.9375,-0.336 0.5782,0 1.0547,0.2344 0.4766,0.2344 0.8203,0.6484 0.3438,0.4141 0.5235,0.9454 0.1797,0.5312 0.1797,1.0781 0,0.7656 -0.336,1.4531 -0.3359,0.6875 -0.9531,1.0938 -0.6172,0.4062 -1.3984,0.4062 z m 0,-0.4062 q 0.5,0 0.8047,-0.2266 0.3046,-0.2266 0.4453,-0.6094 0.1406,-0.3828 0.1797,-0.7656 0.039,-0.3828 0.039,-0.9453 0,-0.7344 -0.0703,-1.25 Q 6.43,6.7625 6.1175,6.364 5.805,5.9656 5.1644,5.9656 4.6331,5.9656 4.2972,6.3171 3.9612,6.6687 3.805,7.2156 3.6487,7.7625 3.6487,8.2625 q 0,0.1718 0.0157,0.2656 0,0.0156 -0.0078,0.0234 -0.0079,0.0078 -0.0079,0.0391 0,0.5469 0.1172,1.1172 0.1172,0.5703 0.4375,0.9687 0.3203,0.3985 0.8985,0.3985 z"
         id="path73"
         inkscape:connector-curvature="0" />
    </g>
    <g
       transform="translate(1613.625,895.3333)"
       style="font-size:13.33329964px;font-family:mwa_cmr10;color-interpolation:linearRGB;fill:#262626;stroke:#262626;color-rendering:optimizeQuality;image-rendering:optimizeQuality;text-rendering:geometricPrecision"
       id="g83">
      <path
         style="stroke:none"
         d="m -5.2685,11.4812 q -1.5938,0 -2.1641,-1.3125 -0.5703,-1.3125 -0.5703,-3.1094 0,-1.1406 0.2031,-2.1328 0.2031,-0.9922 0.8125,-1.6875 0.6094,-0.6953 1.7188,-0.6953 0.8593,0 1.4062,0.4141 0.5469,0.414 0.8281,1.0781 0.2813,0.6641 0.3907,1.4219 0.1093,0.7578 0.1093,1.6015 0,1.1094 -0.2109,2.086 -0.2109,0.9765 -0.8125,1.6562 -0.6016,0.6797 -1.7109,0.6797 z m 0,-0.3281 q 0.7187,0 1.0781,-0.7422 0.3594,-0.7422 0.4375,-1.6484 0.0781,-0.9063 0.0781,-1.9219 0,-0.9688 -0.0781,-1.7969 -0.0781,-0.8281 -0.4297,-1.5 -0.3516,-0.6719 -1.0859,-0.6719 -0.7344,0 -1.0938,0.6797 -0.3594,0.6797 -0.4375,1.5 -0.0781,0.8203 -0.0781,1.7891 0,0.7344 0.0312,1.375 0.0313,0.6406 0.1875,1.3203 0.1563,0.6797 0.4922,1.1484 0.336,0.4688 0.8985,0.4688 z"
         id="path77"
         inkscape:connector-curvature="0" />
      <path
         style="stroke:none"
         d="m -0.7581,10.4812 q 0,-0.2969 0.2188,-0.5 0.2187,-0.2031 0.5,-0.2031 0.1718,0 0.3437,0.0937 0.1719,0.0938 0.2656,0.2657 0.0938,0.1718 0.0938,0.3437 0,0.2813 -0.211,0.5 Q 0.2419,11.2 -0.0393,11.2 q -0.2813,0 -0.5,-0.2188 -0.2188,-0.2187 -0.2188,-0.5 z"
         id="path79"
         inkscape:connector-curvature="0" />
      <path
         style="stroke:none"
         d="M 2.3987,9.2312 Q 2.3987,8.45 2.9144,7.8484 3.43,7.2468 4.2269,6.8406 L 3.7425,6.5281 Q 3.305,6.2468 3.0237,5.7625 2.7425,5.2781 2.7425,4.7312 2.7425,4.1218 3.0706,3.614 3.3987,3.1062 3.9456,2.825 4.4925,2.5437 5.1019,2.5437 q 0.5781,0 1.1172,0.2344 0.539,0.2344 0.8828,0.6719 0.3437,0.4375 0.3437,1.0468 0,0.4375 -0.2031,0.8125 -0.2031,0.375 -0.5625,0.6719 -0.3594,0.2969 -0.7656,0.5 l 0.7343,0.4844 q 0.5157,0.3281 0.8282,0.875 0.3125,0.5469 0.3125,1.1562 0,0.7032 -0.375,1.2813 -0.375,0.5781 -1,0.8906 -0.625,0.3125 -1.3125,0.3125 -0.6719,0 -1.2969,-0.2734 Q 3.18,10.9343 2.7894,10.4187 2.3987,9.9031 2.3987,9.2312 Z m 0.7032,0 q 0,0.5156 0.2812,0.9375 0.2813,0.4219 0.75,0.6641 0.4688,0.2422 0.9688,0.2422 0.75,0 1.3672,-0.4454 0.6171,-0.4453 0.6171,-1.164 0,-0.25 -0.0937,-0.4922 Q 6.8987,8.7312 6.7191,8.5281 6.5394,8.325 6.3206,8.2 L 4.5862,7.075 Q 4.18,7.2781 3.8362,7.614 3.4925,7.95 3.2972,8.3562 3.1019,8.7625 3.1019,9.2312 Z M 3.9925,5.2625 5.5706,6.2781 Q 6.1175,5.95 6.4691,5.5046 6.8206,5.0593 6.8206,4.4968 6.8206,4.0593 6.5706,3.6921 6.3206,3.325 5.93,3.1218 5.5394,2.9187 5.0862,2.9187 4.6956,2.9187 4.2972,3.0671 3.8987,3.2156 3.6409,3.5203 3.3831,3.825 3.3831,4.2312 q 0,0.6094 0.6094,1.0313 z"
         id="path81"
         inkscape:connector-curvature="0" />
    </g>
    <g
       transform="translate(1695.125,895.3333)"
       style="font-size:13.33329964px;font-family:mwa_cmr10;color-interpolation:linearRGB;fill:#262626;stroke:#262626;color-rendering:optimizeQuality;image-rendering:optimizeQuality;text-rendering:geometricPrecision"
       id="g87">
      <path
         style="stroke:none"
         d="m -2.1302,11.2 v -0.4532 q 1.625,0 1.625,-0.4218 V 3.5125 Q -1.1771,3.825 -2.2083,3.825 V 3.3718 q 1.5937,0 2.4062,-0.8281 h 0.1875 q 0.0469,0 0.086,0.0313 0.039,0.0312 0.039,0.0781 v 7.6719 q 0,0.4218 1.625,0.4218 V 11.2 Z"
         id="path85"
         inkscape:connector-curvature="0" />
    </g>
    <g
       transform="translate(1776.625,895.3333)"
       style="font-size:13.33329964px;font-family:mwa_cmr10;color-interpolation:linearRGB;fill:#262626;stroke:#262626;color-rendering:optimizeQuality;image-rendering:optimizeQuality;text-rendering:geometricPrecision"
       id="g95">
      <path
         style="stroke:none"
         d="m -7.3154,11.2 v -0.4532 q 1.625,0 1.625,-0.4218 V 3.5125 Q -6.3623,3.825 -7.3935,3.825 V 3.3718 q 1.5937,0 2.4062,-0.8281 h 0.1875 q 0.0469,0 0.086,0.0313 0.039,0.0312 0.039,0.0781 v 7.6719 q 0,0.4218 1.625,0.4218 V 11.2 Z"
         id="path89"
         inkscape:connector-curvature="0" />
      <path
         style="stroke:none"
         d="m -0.7581,10.4812 q 0,-0.2969 0.2188,-0.5 0.2187,-0.2031 0.5,-0.2031 0.1718,0 0.3437,0.0937 0.1719,0.0938 0.2656,0.2657 0.0938,0.1718 0.0938,0.3437 0,0.2813 -0.211,0.5 Q 0.2419,11.2 -0.0393,11.2 q -0.2813,0 -0.5,-0.2188 -0.2188,-0.2187 -0.2188,-0.5 z"
         id="path91"
         inkscape:connector-curvature="0" />
      <path
         style="stroke:none"
         d="m 2.4925,11.2 v -0.3438 q 0,-0.0312 0.0312,-0.0781 L 4.5394,8.5437 q 0.4687,-0.5 0.75,-0.8359 Q 5.5706,7.3718 5.8519,6.9343 6.1331,6.4968 6.2972,6.0437 6.4612,5.5906 6.4612,5.0906 6.4612,4.5593 6.2581,4.0671 6.055,3.575 5.6644,3.2859 5.2737,2.9968 4.7269,2.9968 4.1644,2.9968 3.7112,3.3406 3.2581,3.6843 3.0706,4.2156 3.1331,4.2 3.2112,4.2 q 0.2969,0 0.5,0.1953 0.2032,0.1953 0.2032,0.5078 0,0.2969 -0.2032,0.5078 -0.2031,0.2109 -0.5,0.2109 -0.2968,0 -0.5078,-0.2109 Q 2.4925,5.2 2.4925,4.9031 2.4925,4.4187 2.68,3.989 2.8675,3.5593 3.2112,3.2312 3.555,2.9031 3.9925,2.7234 4.43,2.5437 4.9144,2.5437 q 0.75,0 1.3906,0.3125 0.6406,0.3125 1.0156,0.8906 0.375,0.5782 0.375,1.3438 0,0.5625 -0.25,1.0703 Q 7.1956,6.6687 6.8128,7.0828 6.43,7.4968 5.8206,8.0281 5.2112,8.5593 5.0237,8.7312 L 3.555,10.1531 h 1.25 q 0.9219,0 1.5391,-0.0156 Q 6.9612,10.1218 6.9925,10.075 7.1487,9.9187 7.305,8.8875 H 7.6956 L 7.3206,11.2 Z"
         id="path93"
         inkscape:connector-curvature="0" />
    </g>
    <g
       transform="translate(1858.125,895.3333)"
       style="font-size:13.33329964px;font-family:mwa_cmr10;color-interpolation:linearRGB;fill:#262626;stroke:#262626;color-rendering:optimizeQuality;image-rendering:optimizeQuality;text-rendering:geometricPrecision"
       id="g103">
      <path
         style="stroke:none"
         d="m -7.3154,11.2 v -0.4532 q 1.625,0 1.625,-0.4218 V 3.5125 Q -6.3623,3.825 -7.3935,3.825 V 3.3718 q 1.5937,0 2.4062,-0.8281 h 0.1875 q 0.0469,0 0.086,0.0313 0.039,0.0312 0.039,0.0781 v 7.6719 q 0,0.4218 1.625,0.4218 V 11.2 Z"
         id="path97"
         inkscape:connector-curvature="0" />
      <path
         style="stroke:none"
         d="m -0.7581,10.4812 q 0,-0.2969 0.2188,-0.5 0.2187,-0.2031 0.5,-0.2031 0.1718,0 0.3437,0.0937 0.1719,0.0938 0.2656,0.2657 0.0938,0.1718 0.0938,0.3437 0,0.2813 -0.211,0.5 Q 0.2419,11.2 -0.0393,11.2 q -0.2813,0 -0.5,-0.2188 -0.2188,-0.2187 -0.2188,-0.5 z"
         id="path99"
         inkscape:connector-curvature="0" />
      <path
         style="stroke:none"
         d="M 2.2112,9.0593 V 8.5906 L 6.2269,2.6062 Q 6.2737,2.5437 6.3675,2.5437 H 6.555 q 0.1406,0 0.1406,0.1406 V 8.5906 H 7.9769 V 9.0593 H 6.6956 v 1.2657 q 0,0.2656 0.3828,0.3437 0.3828,0.0781 0.8828,0.0781 V 11.2 H 4.3831 v -0.4532 q 0.5,0 0.8828,-0.0781 0.3828,-0.0781 0.3828,-0.3437 V 9.0593 Z M 2.6487,8.5906 H 5.7269 V 3.9968 Z"
         id="path101"
         inkscape:connector-curvature="0" />
    </g>
    <g
       style="color-interpolation:linearRGB;fill:#262626;stroke:#262626;stroke-width:0.66670001;stroke-linejoin:round;color-rendering:optimizeQuality;image-rendering:optimizeQuality;text-rendering:geometricPrecision"
       id="g129">
      <line
         y2="75"
         style="fill:none"
         x1="1206.125"
         x2="1206.125"
         y1="890"
         id="line105" />
      <line
         y2="890"
         style="fill:none"
         x1="1206.125"
         x2="1214.275"
         y1="890"
         id="line107" />
      <line
         y2="808.5"
         style="fill:none"
         x1="1206.125"
         x2="1214.275"
         y1="808.5"
         id="line109" />
      <line
         y2="727"
         style="fill:none"
         x1="1206.125"
         x2="1214.275"
         y1="727"
         id="line111" />
      <line
         y2="645.5"
         style="fill:none"
         x1="1206.125"
         x2="1214.275"
         y1="645.5"
         id="line113" />
      <line
         y2="564"
         style="fill:none"
         x1="1206.125"
         x2="1214.275"
         y1="564"
         id="line115" />
      <line
         y2="482.5"
         style="fill:none"
         x1="1206.125"
         x2="1214.275"
         y1="482.5"
         id="line117" />
      <line
         y2="401"
         style="fill:none"
         x1="1206.125"
         x2="1214.275"
         y1="401"
         id="line119" />
      <line
         y2="319.5"
         style="fill:none"
         x1="1206.125"
         x2="1214.275"
         y1="319.5"
         id="line121" />
      <line
         y2="238"
         style="fill:none"
         x1="1206.125"
         x2="1214.275"
         y1="238"
         id="line123" />
      <line
         y2="156.5"
         style="fill:none"
         x1="1206.125"
         x2="1214.275"
         y1="156.5"
         id="line125" />
      <line
         y2="75"
         style="fill:none"
         x1="1206.125"
         x2="1214.275"
         y1="75"
         id="line127" />
    </g>
    <g
       transform="translate(1200.7916,890)"
       style="font-size:13.33329964px;font-family:mwa_cmr10;color-interpolation:linearRGB;fill:#262626;stroke:#262626;color-rendering:optimizeQuality;image-rendering:optimizeQuality;text-rendering:geometricPrecision"
       id="g133">
      <path
         style="stroke:none"
         d="m -3.4167,3.4812 q -1.5937,0 -2.164,-1.3125 -0.5704,-1.3125 -0.5704,-3.1094 0,-1.1406 0.2032,-2.1328 0.2031,-0.9922 0.8125,-1.6875 0.6093,-0.6953 1.7187,-0.6953 0.8594,0 1.4063,0.4141 0.5468,0.414 0.8281,1.0781 0.2812,0.6641 0.3906,1.4219 0.1094,0.7578 0.1094,1.6015 0,1.1094 -0.2109,2.086 -0.211,0.9765 -0.8125,1.6562 -0.6016,0.6797 -1.711,0.6797 z m 0,-0.3281 q 0.7188,0 1.0781,-0.7422 0.3594,-0.7422 0.4375,-1.6484 0.0782,-0.9063 0.0782,-1.9219 0,-0.9688 -0.0782,-1.7969 -0.0781,-0.8281 -0.4296,-1.5 -0.3516,-0.6719 -1.086,-0.6719 -0.7344,0 -1.0937,0.6797 -0.3594,0.6797 -0.4375,1.5 -0.0782,0.8203 -0.0782,1.7891 0,0.7344 0.0313,1.375 0.0312,0.6406 0.1875,1.3203 0.1562,0.6797 0.4922,1.1484 0.3359,0.4688 0.8984,0.4688 z"
         id="path131"
         inkscape:connector-curvature="0" />
    </g>
    <g
       transform="translate(1200.7916,808.5)"
       style="font-size:13.33329964px;font-family:mwa_cmr10;color-interpolation:linearRGB;fill:#262626;stroke:#262626;color-rendering:optimizeQuality;image-rendering:optimizeQuality;text-rendering:geometricPrecision"
       id="g141">
      <path
         style="stroke:none"
         d="m -13.7871,3.4812 q -1.5937,0 -2.1641,-1.3125 -0.5703,-1.3125 -0.5703,-3.1094 0,-1.1406 0.2032,-2.1328 0.2031,-0.9922 0.8125,-1.6875 0.6093,-0.6953 1.7187,-0.6953 0.8594,0 1.4063,0.4141 0.5468,0.414 0.8281,1.0781 0.2812,0.6641 0.3906,1.4219 0.1094,0.7578 0.1094,1.6015 0,1.1094 -0.211,2.086 -0.2109,0.9765 -0.8125,1.6562 -0.6015,0.6797 -1.7109,0.6797 z m 0,-0.3281 q 0.7188,0 1.0781,-0.7422 0.3594,-0.7422 0.4375,-1.6484 0.0782,-0.9063 0.0782,-1.9219 0,-0.9688 -0.0782,-1.7969 -0.0781,-0.8281 -0.4297,-1.5 -0.3515,-0.6719 -1.0859,-0.6719 -0.7344,0 -1.0937,0.6797 -0.3594,0.6797 -0.4375,1.5 -0.0782,0.8203 -0.0782,1.7891 0,0.7344 0.0313,1.375 0.0312,0.6406 0.1875,1.3203 0.1562,0.6797 0.4922,1.1484 0.3359,0.4688 0.8984,0.4688 z"
         id="path135"
         inkscape:connector-curvature="0" />
      <path
         style="stroke:none"
         d="m -9.2767,2.4812 q 0,-0.2969 0.2188,-0.5 0.2187,-0.2031 0.5,-0.2031 0.1719,0 0.3437,0.0937 0.1719,0.0938 0.2657,0.2657 0.0937,0.1718 0.0937,0.3437 0,0.2813 -0.2109,0.5 Q -8.2767,3.2 -8.5579,3.2 q -0.2813,0 -0.5,-0.2188 -0.2188,-0.2187 -0.2188,-0.5 z"
         id="path137"
         inkscape:connector-curvature="0" />
      <path
         style="stroke:none"
         d="M -6.0261,3.2 V 2.8562 q 0,-0.0312 0.0313,-0.0781 l 2.0156,-2.2344 q 0.4688,-0.5 0.75,-0.8359 0.2813,-0.336 0.5625,-0.7735 0.2813,-0.4375 0.4453,-0.8906 0.1641,-0.4531 0.1641,-0.9531 0,-0.5313 -0.2031,-1.0235 -0.2032,-0.4921 -0.5938,-0.7812 -0.3906,-0.2891 -0.9375,-0.2891 -0.5625,0 -1.0156,0.3438 -0.4531,0.3437 -0.6406,0.875 0.0625,-0.0156 0.1406,-0.0156 0.2969,0 0.5,0.1953 0.2031,0.1953 0.2031,0.5078 0,0.2969 -0.2031,0.5078 -0.2031,0.2109 -0.5,0.2109 -0.2969,0 -0.5078,-0.2109 -0.211,-0.2109 -0.211,-0.5078 0,-0.4844 0.1875,-0.9141 0.1875,-0.4297 0.5313,-0.7578 0.3437,-0.3281 0.7812,-0.5078 0.4375,-0.1797 0.9219,-0.1797 0.75,0 1.3906,0.3125 0.6407,0.3125 1.0157,0.8906 0.375,0.5782 0.375,1.3438 0,0.5625 -0.25,1.0703 -0.25,0.5078 -0.6328,0.9219 -0.3829,0.414 -0.9922,0.9453 -0.6094,0.5312 -0.7969,0.7031 l -1.4688,1.4219 h 1.25 q 0.9219,0 1.5391,-0.0156 0.6172,-0.0157 0.6484,-0.0625 0.1563,-0.1563 0.3125,-1.1875 h 0.3907 L -1.1979,3.2 Z"
         id="path139"
         inkscape:connector-curvature="0" />
    </g>
    <g
       transform="translate(1200.7916,727)"
       style="font-size:13.33329964px;font-family:mwa_cmr10;color-interpolation:linearRGB;fill:#262626;stroke:#262626;color-rendering:optimizeQuality;image-rendering:optimizeQuality;text-rendering:geometricPrecision"
       id="g149">
      <path
         style="stroke:none"
         d="m -13.7871,3.4812 q -1.5937,0 -2.1641,-1.3125 -0.5703,-1.3125 -0.5703,-3.1094 0,-1.1406 0.2032,-2.1328 0.2031,-0.9922 0.8125,-1.6875 0.6093,-0.6953 1.7187,-0.6953 0.8594,0 1.4063,0.4141 0.5468,0.414 0.8281,1.0781 0.2812,0.6641 0.3906,1.4219 0.1094,0.7578 0.1094,1.6015 0,1.1094 -0.211,2.086 -0.2109,0.9765 -0.8125,1.6562 -0.6015,0.6797 -1.7109,0.6797 z m 0,-0.3281 q 0.7188,0 1.0781,-0.7422 0.3594,-0.7422 0.4375,-1.6484 0.0782,-0.9063 0.0782,-1.9219 0,-0.9688 -0.0782,-1.7969 -0.0781,-0.8281 -0.4297,-1.5 -0.3515,-0.6719 -1.0859,-0.6719 -0.7344,0 -1.0937,0.6797 -0.3594,0.6797 -0.4375,1.5 -0.0782,0.8203 -0.0782,1.7891 0,0.7344 0.0313,1.375 0.0312,0.6406 0.1875,1.3203 0.1562,0.6797 0.4922,1.1484 0.3359,0.4688 0.8984,0.4688 z"
         id="path143"
         inkscape:connector-curvature="0" />
      <path
         style="stroke:none"
         d="m -9.2767,2.4812 q 0,-0.2969 0.2188,-0.5 0.2187,-0.2031 0.5,-0.2031 0.1719,0 0.3437,0.0937 0.1719,0.0938 0.2657,0.2657 0.0937,0.1718 0.0937,0.3437 0,0.2813 -0.2109,0.5 Q -8.2767,3.2 -8.5579,3.2 q -0.2813,0 -0.5,-0.2188 -0.2188,-0.2187 -0.2188,-0.5 z"
         id="path145"
         inkscape:connector-curvature="0" />
      <path
         style="stroke:none"
         d="M -6.3073,1.0593 V 0.5906 l 4.0156,-5.9844 q 0.0469,-0.0625 0.1406,-0.0625 h 0.1875 q 0.1407,0 0.1407,0.1406 v 5.9063 h 1.2812 V 1.0593 H -1.8229 V 2.325 q 0,0.2656 0.3828,0.3437 0.3828,0.0781 0.8828,0.0781 V 3.2 H -4.1354 V 2.7468 q 0.5,0 0.8828,-0.0781 0.3828,-0.0781 0.3828,-0.3437 V 1.0593 Z m 0.4375,-0.4687 h 3.0781 v -4.5938 z"
         id="path147"
         inkscape:connector-curvature="0" />
    </g>
    <g
       transform="translate(1200.7916,645.5)"
       style="font-size:13.33329964px;font-family:mwa_cmr10;color-interpolation:linearRGB;fill:#262626;stroke:#262626;color-rendering:optimizeQuality;image-rendering:optimizeQuality;text-rendering:geometricPrecision"
       id="g157">
      <path
         style="stroke:none"
         d="m -13.7871,3.4812 q -1.5937,0 -2.1641,-1.3125 -0.5703,-1.3125 -0.5703,-3.1094 0,-1.1406 0.2032,-2.1328 0.2031,-0.9922 0.8125,-1.6875 0.6093,-0.6953 1.7187,-0.6953 0.8594,0 1.4063,0.4141 0.5468,0.414 0.8281,1.0781 0.2812,0.6641 0.3906,1.4219 0.1094,0.7578 0.1094,1.6015 0,1.1094 -0.211,2.086 -0.2109,0.9765 -0.8125,1.6562 -0.6015,0.6797 -1.7109,0.6797 z m 0,-0.3281 q 0.7188,0 1.0781,-0.7422 0.3594,-0.7422 0.4375,-1.6484 0.0782,-0.9063 0.0782,-1.9219 0,-0.9688 -0.0782,-1.7969 -0.0781,-0.8281 -0.4297,-1.5 -0.3515,-0.6719 -1.0859,-0.6719 -0.7344,0 -1.0937,0.6797 -0.3594,0.6797 -0.4375,1.5 -0.0782,0.8203 -0.0782,1.7891 0,0.7344 0.0313,1.375 0.0312,0.6406 0.1875,1.3203 0.1562,0.6797 0.4922,1.1484 0.3359,0.4688 0.8984,0.4688 z"
         id="path151"
         inkscape:connector-curvature="0" />
      <path
         style="stroke:none"
         d="m -9.2767,2.4812 q 0,-0.2969 0.2188,-0.5 0.2187,-0.2031 0.5,-0.2031 0.1719,0 0.3437,0.0937 0.1719,0.0938 0.2657,0.2657 0.0937,0.1718 0.0937,0.3437 0,0.2813 -0.2109,0.5 Q -8.2767,3.2 -8.5579,3.2 q -0.2813,0 -0.5,-0.2188 -0.2188,-0.2187 -0.2188,-0.5 z"
         id="path153"
         inkscape:connector-curvature="0" />
      <path
         style="stroke:none"
         d="m -3.4167,3.4812 q -0.8125,0 -1.3515,-0.4297 -0.5391,-0.4297 -0.8282,-1.1094 -0.289,-0.6796 -0.4062,-1.4296 -0.1172,-0.75 -0.1172,-1.5157 0,-1.0312 0.3984,-2.0625 0.3985,-1.0312 1.1797,-1.7109 0.7813,-0.6797 1.8438,-0.6797 0.4375,0 0.8281,0.1641 0.3906,0.164 0.6094,0.4922 0.2187,0.3281 0.2187,0.7968 0,0.2657 -0.1875,0.4453 -0.1875,0.1797 -0.4531,0.1797 -0.25,0 -0.4297,-0.1797 -0.1797,-0.1796 -0.1797,-0.4453 0,-0.25 0.1797,-0.4375 0.1797,-0.1875 0.4297,-0.1875 h 0.0781 q -0.1719,-0.2343 -0.4687,-0.3437 -0.2969,-0.1094 -0.625,-0.1094 -0.3907,0 -0.7266,0.1719 -0.3359,0.1719 -0.6016,0.4609 -0.2656,0.2891 -0.4453,0.6406 -0.1797,0.3516 -0.2734,0.8047 -0.0938,0.4532 -0.125,0.8438 -0.0313,0.3906 -0.0313,0.9844 0.2344,-0.5313 0.6563,-0.8672 0.4219,-0.336 0.9375,-0.336 0.5781,0 1.0547,0.2344 0.4765,0.2344 0.8203,0.6484 0.3437,0.4141 0.5234,0.9454 0.1797,0.5312 0.1797,1.0781 0,0.7656 -0.3359,1.4531 -0.336,0.6875 -0.9531,1.0938 -0.6172,0.4062 -1.3985,0.4062 z m 0,-0.4062 q 0.5,0 0.8047,-0.2266 0.3047,-0.2266 0.4453,-0.6094 0.1406,-0.3828 0.1797,-0.7656 0.0391,-0.3828 0.0391,-0.9453 0,-0.7344 -0.0703,-1.25 -0.0704,-0.5156 -0.3829,-0.9141 -0.3125,-0.3984 -0.9531,-0.3984 -0.5312,0 -0.8672,0.3515 -0.3359,0.3516 -0.4922,0.8985 -0.1562,0.5469 -0.1562,1.0469 0,0.1718 0.0156,0.2656 0,0.0156 -0.0078,0.0234 -0.0078,0.0078 -0.0078,0.0391 0,0.5469 0.1172,1.1172 0.1172,0.5703 0.4375,0.9687 0.3203,0.3985 0.8984,0.3985 z"
         id="path155"
         inkscape:connector-curvature="0" />
    </g>
    <g
       transform="translate(1200.7916,564)"
       style="font-size:13.33329964px;font-family:mwa_cmr10;color-interpolation:linearRGB;fill:#262626;stroke:#262626;color-rendering:optimizeQuality;image-rendering:optimizeQuality;text-rendering:geometricPrecision"
       id="g165">
      <path
         style="stroke:none"
         d="m -13.7871,3.4812 q -1.5937,0 -2.1641,-1.3125 -0.5703,-1.3125 -0.5703,-3.1094 0,-1.1406 0.2032,-2.1328 0.2031,-0.9922 0.8125,-1.6875 0.6093,-0.6953 1.7187,-0.6953 0.8594,0 1.4063,0.4141 0.5468,0.414 0.8281,1.0781 0.2812,0.6641 0.3906,1.4219 0.1094,0.7578 0.1094,1.6015 0,1.1094 -0.211,2.086 -0.2109,0.9765 -0.8125,1.6562 -0.6015,0.6797 -1.7109,0.6797 z m 0,-0.3281 q 0.7188,0 1.0781,-0.7422 0.3594,-0.7422 0.4375,-1.6484 0.0782,-0.9063 0.0782,-1.9219 0,-0.9688 -0.0782,-1.7969 -0.0781,-0.8281 -0.4297,-1.5 -0.3515,-0.6719 -1.0859,-0.6719 -0.7344,0 -1.0937,0.6797 -0.3594,0.6797 -0.4375,1.5 -0.0782,0.8203 -0.0782,1.7891 0,0.7344 0.0313,1.375 0.0312,0.6406 0.1875,1.3203 0.1562,0.6797 0.4922,1.1484 0.3359,0.4688 0.8984,0.4688 z"
         id="path159"
         inkscape:connector-curvature="0" />
      <path
         style="stroke:none"
         d="m -9.2767,2.4812 q 0,-0.2969 0.2188,-0.5 0.2187,-0.2031 0.5,-0.2031 0.1719,0 0.3437,0.0937 0.1719,0.0938 0.2657,0.2657 0.0937,0.1718 0.0937,0.3437 0,0.2813 -0.2109,0.5 Q -8.2767,3.2 -8.5579,3.2 q -0.2813,0 -0.5,-0.2188 -0.2188,-0.2187 -0.2188,-0.5 z"
         id="path161"
         inkscape:connector-curvature="0" />
      <path
         style="stroke:none"
         d="m -6.1198,1.2312 q 0,-0.7812 0.5156,-1.3828 0.5156,-0.6016 1.3125,-1.0078 l -0.4844,-0.3125 q -0.4375,-0.2813 -0.7187,-0.7656 -0.2813,-0.4844 -0.2813,-1.0313 0,-0.6094 0.3282,-1.1172 0.3281,-0.5078 0.875,-0.789 0.5468,-0.2813 1.1562,-0.2813 0.5781,0 1.1172,0.2344 0.5391,0.2344 0.8828,0.6719 0.3438,0.4375 0.3438,1.0468 0,0.4375 -0.2032,0.8125 -0.2031,0.375 -0.5625,0.6719 -0.3593,0.2969 -0.7656,0.5 l 0.7344,0.4844 q 0.5156,0.3281 0.8281,0.875 0.3125,0.5469 0.3125,1.1562 0,0.7032 -0.375,1.2813 -0.375,0.5781 -1,0.8906 -0.625,0.3125 -1.3125,0.3125 -0.6719,0 -1.2969,-0.2734 Q -5.3386,2.9343 -5.7292,2.4187 -6.1198,1.9031 -6.1198,1.2312 Z m 0.7031,0 q 0,0.5156 0.2813,0.9375 0.2812,0.4219 0.75,0.6641 0.4687,0.2422 0.9687,0.2422 0.75,0 1.3672,-0.4454 0.6172,-0.4453 0.6172,-1.164 0,-0.25 -0.0938,-0.4922 Q -1.6198,0.7312 -1.7995,0.5281 -1.9792,0.325 -2.1979,0.2 l -1.7344,-1.125 q -0.4063,0.2031 -0.75,0.539 -0.3438,0.336 -0.5391,0.7422 -0.1953,0.4063 -0.1953,0.875 z m 0.8906,-3.9687 1.5782,1.0156 q 0.5468,-0.3281 0.8984,-0.7735 0.3516,-0.4453 0.3516,-1.0078 0,-0.4375 -0.25,-0.8047 -0.25,-0.3671 -0.6407,-0.5703 -0.3906,-0.2031 -0.8437,-0.2031 -0.3906,0 -0.7891,0.1484 -0.3984,0.1485 -0.6562,0.4532 -0.2578,0.3047 -0.2578,0.7109 0,0.6094 0.6093,1.0313 z"
         id="path163"
         inkscape:connector-curvature="0" />
    </g>
    <g
       transform="translate(1200.7916,482.5)"
       style="font-size:13.33329964px;font-family:mwa_cmr10;color-interpolation:linearRGB;fill:#262626;stroke:#262626;color-rendering:optimizeQuality;image-rendering:optimizeQuality;text-rendering:geometricPrecision"
       id="g169">
      <path
         style="stroke:none"
         d="M -5.4636,3.2 V 2.7468 q 1.625,0 1.625,-0.4218 v -6.8125 q -0.6718,0.3125 -1.7031,0.3125 v -0.4532 q 1.5938,0 2.4063,-0.8281 h 0.1875 q 0.0468,0 0.0859,0.0313 0.0391,0.0312 0.0391,0.0781 V 2.325 q 0,0.4218 1.625,0.4218 V 3.2 Z"
         id="path167"
         inkscape:connector-curvature="0" />
    </g>
    <g
       transform="translate(1200.7916,401)"
       style="font-size:13.33329964px;font-family:mwa_cmr10;color-interpolation:linearRGB;fill:#262626;stroke:#262626;color-rendering:optimizeQuality;image-rendering:optimizeQuality;text-rendering:geometricPrecision"
       id="g177">
      <path
         style="stroke:none"
         d="M -15.834,3.2 V 2.7468 q 1.625,0 1.625,-0.4218 v -6.8125 q -0.6718,0.3125 -1.7031,0.3125 v -0.4532 q 1.5938,0 2.4063,-0.8281 h 0.1875 q 0.0468,0 0.0859,0.0313 0.0391,0.0312 0.0391,0.0781 V 2.325 q 0,0.4218 1.625,0.4218 V 3.2 Z"
         id="path171"
         inkscape:connector-curvature="0" />
      <path
         style="stroke:none"
         d="m -9.2767,2.4812 q 0,-0.2969 0.2188,-0.5 0.2187,-0.2031 0.5,-0.2031 0.1719,0 0.3437,0.0937 0.1719,0.0938 0.2657,0.2657 0.0937,0.1718 0.0937,0.3437 0,0.2813 -0.2109,0.5 Q -8.2767,3.2 -8.5579,3.2 q -0.2813,0 -0.5,-0.2188 -0.2188,-0.2187 -0.2188,-0.5 z"
         id="path173"
         inkscape:connector-curvature="0" />
      <path
         style="stroke:none"
         d="M -6.0261,3.2 V 2.8562 q 0,-0.0312 0.0313,-0.0781 l 2.0156,-2.2344 q 0.4688,-0.5 0.75,-0.8359 0.2813,-0.336 0.5625,-0.7735 0.2813,-0.4375 0.4453,-0.8906 0.1641,-0.4531 0.1641,-0.9531 0,-0.5313 -0.2031,-1.0235 -0.2032,-0.4921 -0.5938,-0.7812 -0.3906,-0.2891 -0.9375,-0.2891 -0.5625,0 -1.0156,0.3438 -0.4531,0.3437 -0.6406,0.875 0.0625,-0.0156 0.1406,-0.0156 0.2969,0 0.5,0.1953 0.2031,0.1953 0.2031,0.5078 0,0.2969 -0.2031,0.5078 -0.2031,0.2109 -0.5,0.2109 -0.2969,0 -0.5078,-0.2109 -0.211,-0.2109 -0.211,-0.5078 0,-0.4844 0.1875,-0.9141 0.1875,-0.4297 0.5313,-0.7578 0.3437,-0.3281 0.7812,-0.5078 0.4375,-0.1797 0.9219,-0.1797 0.75,0 1.3906,0.3125 0.6407,0.3125 1.0157,0.8906 0.375,0.5782 0.375,1.3438 0,0.5625 -0.25,1.0703 -0.25,0.5078 -0.6328,0.9219 -0.3829,0.414 -0.9922,0.9453 -0.6094,0.5312 -0.7969,0.7031 l -1.4688,1.4219 h 1.25 q 0.9219,0 1.5391,-0.0156 0.6172,-0.0157 0.6484,-0.0625 0.1563,-0.1563 0.3125,-1.1875 h 0.3907 L -1.1979,3.2 Z"
         id="path175"
         inkscape:connector-curvature="0" />
    </g>
    <g
       transform="translate(1200.7916,319.5)"
       style="font-size:13.33329964px;font-family:mwa_cmr10;color-interpolation:linearRGB;fill:#262626;stroke:#262626;color-rendering:optimizeQuality;image-rendering:optimizeQuality;text-rendering:geometricPrecision"
       id="g185">
      <path
         style="stroke:none"
         d="M -15.834,3.2 V 2.7468 q 1.625,0 1.625,-0.4218 v -6.8125 q -0.6718,0.3125 -1.7031,0.3125 v -0.4532 q 1.5938,0 2.4063,-0.8281 h 0.1875 q 0.0468,0 0.0859,0.0313 0.0391,0.0312 0.0391,0.0781 V 2.325 q 0,0.4218 1.625,0.4218 V 3.2 Z"
         id="path179"
         inkscape:connector-curvature="0" />
      <path
         style="stroke:none"
         d="m -9.2767,2.4812 q 0,-0.2969 0.2188,-0.5 0.2187,-0.2031 0.5,-0.2031 0.1719,0 0.3437,0.0937 0.1719,0.0938 0.2657,0.2657 0.0937,0.1718 0.0937,0.3437 0,0.2813 -0.2109,0.5 Q -8.2767,3.2 -8.5579,3.2 q -0.2813,0 -0.5,-0.2188 -0.2188,-0.2187 -0.2188,-0.5 z"
         id="path181"
         inkscape:connector-curvature="0" />
      <path
         style="stroke:none"
         d="M -6.3073,1.0593 V 0.5906 l 4.0156,-5.9844 q 0.0469,-0.0625 0.1406,-0.0625 h 0.1875 q 0.1407,0 0.1407,0.1406 v 5.9063 h 1.2812 V 1.0593 H -1.8229 V 2.325 q 0,0.2656 0.3828,0.3437 0.3828,0.0781 0.8828,0.0781 V 3.2 H -4.1354 V 2.7468 q 0.5,0 0.8828,-0.0781 0.3828,-0.0781 0.3828,-0.3437 V 1.0593 Z m 0.4375,-0.4687 h 3.0781 v -4.5938 z"
         id="path183"
         inkscape:connector-curvature="0" />
    </g>
    <g
       transform="translate(1200.7916,238)"
       style="font-size:13.33329964px;font-family:mwa_cmr10;color-interpolation:linearRGB;fill:#262626;stroke:#262626;color-rendering:optimizeQuality;image-rendering:optimizeQuality;text-rendering:geometricPrecision"
       id="g193">
      <path
         style="stroke:none"
         d="M -15.834,3.2 V 2.7468 q 1.625,0 1.625,-0.4218 v -6.8125 q -0.6718,0.3125 -1.7031,0.3125 v -0.4532 q 1.5938,0 2.4063,-0.8281 h 0.1875 q 0.0468,0 0.0859,0.0313 0.0391,0.0312 0.0391,0.0781 V 2.325 q 0,0.4218 1.625,0.4218 V 3.2 Z"
         id="path187"
         inkscape:connector-curvature="0" />
      <path
         style="stroke:none"
         d="m -9.2767,2.4812 q 0,-0.2969 0.2188,-0.5 0.2187,-0.2031 0.5,-0.2031 0.1719,0 0.3437,0.0937 0.1719,0.0938 0.2657,0.2657 0.0937,0.1718 0.0937,0.3437 0,0.2813 -0.2109,0.5 Q -8.2767,3.2 -8.5579,3.2 q -0.2813,0 -0.5,-0.2188 -0.2188,-0.2187 -0.2188,-0.5 z"
         id="path189"
         inkscape:connector-curvature="0" />
      <path
         style="stroke:none"
         d="m -3.4167,3.4812 q -0.8125,0 -1.3515,-0.4297 -0.5391,-0.4297 -0.8282,-1.1094 -0.289,-0.6796 -0.4062,-1.4296 -0.1172,-0.75 -0.1172,-1.5157 0,-1.0312 0.3984,-2.0625 0.3985,-1.0312 1.1797,-1.7109 0.7813,-0.6797 1.8438,-0.6797 0.4375,0 0.8281,0.1641 0.3906,0.164 0.6094,0.4922 0.2187,0.3281 0.2187,0.7968 0,0.2657 -0.1875,0.4453 -0.1875,0.1797 -0.4531,0.1797 -0.25,0 -0.4297,-0.1797 -0.1797,-0.1796 -0.1797,-0.4453 0,-0.25 0.1797,-0.4375 0.1797,-0.1875 0.4297,-0.1875 h 0.0781 q -0.1719,-0.2343 -0.4687,-0.3437 -0.2969,-0.1094 -0.625,-0.1094 -0.3907,0 -0.7266,0.1719 -0.3359,0.1719 -0.6016,0.4609 -0.2656,0.2891 -0.4453,0.6406 -0.1797,0.3516 -0.2734,0.8047 -0.0938,0.4532 -0.125,0.8438 -0.0313,0.3906 -0.0313,0.9844 0.2344,-0.5313 0.6563,-0.8672 0.4219,-0.336 0.9375,-0.336 0.5781,0 1.0547,0.2344 0.4765,0.2344 0.8203,0.6484 0.3437,0.4141 0.5234,0.9454 0.1797,0.5312 0.1797,1.0781 0,0.7656 -0.3359,1.4531 -0.336,0.6875 -0.9531,1.0938 -0.6172,0.4062 -1.3985,0.4062 z m 0,-0.4062 q 0.5,0 0.8047,-0.2266 0.3047,-0.2266 0.4453,-0.6094 0.1406,-0.3828 0.1797,-0.7656 0.0391,-0.3828 0.0391,-0.9453 0,-0.7344 -0.0703,-1.25 -0.0704,-0.5156 -0.3829,-0.9141 -0.3125,-0.3984 -0.9531,-0.3984 -0.5312,0 -0.8672,0.3515 -0.3359,0.3516 -0.4922,0.8985 -0.1562,0.5469 -0.1562,1.0469 0,0.1718 0.0156,0.2656 0,0.0156 -0.0078,0.0234 -0.0078,0.0078 -0.0078,0.0391 0,0.5469 0.1172,1.1172 0.1172,0.5703 0.4375,0.9687 0.3203,0.3985 0.8984,0.3985 z"
         id="path191"
         inkscape:connector-curvature="0" />
    </g>
    <g
       transform="translate(1200.7916,156.5)"
       style="font-size:13.33329964px;font-family:mwa_cmr10;color-interpolation:linearRGB;fill:#262626;stroke:#262626;color-rendering:optimizeQuality;image-rendering:optimizeQuality;text-rendering:geometricPrecision"
       id="g201">
      <path
         style="stroke:none"
         d="M -15.834,3.2 V 2.7468 q 1.625,0 1.625,-0.4218 v -6.8125 q -0.6718,0.3125 -1.7031,0.3125 v -0.4532 q 1.5938,0 2.4063,-0.8281 h 0.1875 q 0.0468,0 0.0859,0.0313 0.0391,0.0312 0.0391,0.0781 V 2.325 q 0,0.4218 1.625,0.4218 V 3.2 Z"
         id="path195"
         inkscape:connector-curvature="0" />
      <path
         style="stroke:none"
         d="m -9.2767,2.4812 q 0,-0.2969 0.2188,-0.5 0.2187,-0.2031 0.5,-0.2031 0.1719,0 0.3437,0.0937 0.1719,0.0938 0.2657,0.2657 0.0937,0.1718 0.0937,0.3437 0,0.2813 -0.2109,0.5 Q -8.2767,3.2 -8.5579,3.2 q -0.2813,0 -0.5,-0.2188 -0.2188,-0.2187 -0.2188,-0.5 z"
         id="path197"
         inkscape:connector-curvature="0" />
      <path
         style="stroke:none"
         d="m -6.1198,1.2312 q 0,-0.7812 0.5156,-1.3828 0.5156,-0.6016 1.3125,-1.0078 l -0.4844,-0.3125 q -0.4375,-0.2813 -0.7187,-0.7656 -0.2813,-0.4844 -0.2813,-1.0313 0,-0.6094 0.3282,-1.1172 0.3281,-0.5078 0.875,-0.789 0.5468,-0.2813 1.1562,-0.2813 0.5781,0 1.1172,0.2344 0.5391,0.2344 0.8828,0.6719 0.3438,0.4375 0.3438,1.0468 0,0.4375 -0.2032,0.8125 -0.2031,0.375 -0.5625,0.6719 -0.3593,0.2969 -0.7656,0.5 l 0.7344,0.4844 q 0.5156,0.3281 0.8281,0.875 0.3125,0.5469 0.3125,1.1562 0,0.7032 -0.375,1.2813 -0.375,0.5781 -1,0.8906 -0.625,0.3125 -1.3125,0.3125 -0.6719,0 -1.2969,-0.2734 Q -5.3386,2.9343 -5.7292,2.4187 -6.1198,1.9031 -6.1198,1.2312 Z m 0.7031,0 q 0,0.5156 0.2813,0.9375 0.2812,0.4219 0.75,0.6641 0.4687,0.2422 0.9687,0.2422 0.75,0 1.3672,-0.4454 0.6172,-0.4453 0.6172,-1.164 0,-0.25 -0.0938,-0.4922 Q -1.6198,0.7312 -1.7995,0.5281 -1.9792,0.325 -2.1979,0.2 l -1.7344,-1.125 q -0.4063,0.2031 -0.75,0.539 -0.3438,0.336 -0.5391,0.7422 -0.1953,0.4063 -0.1953,0.875 z m 0.8906,-3.9687 1.5782,1.0156 q 0.5468,-0.3281 0.8984,-0.7735 0.3516,-0.4453 0.3516,-1.0078 0,-0.4375 -0.25,-0.8047 -0.25,-0.3671 -0.6407,-0.5703 -0.3906,-0.2031 -0.8437,-0.2031 -0.3906,0 -0.7891,0.1484 -0.3984,0.1485 -0.6562,0.4532 -0.2578,0.3047 -0.2578,0.7109 0,0.6094 0.6093,1.0313 z"
         id="path199"
         inkscape:connector-curvature="0" />
    </g>
    <g
       transform="translate(1200.7916,75)"
       style="font-size:13.33329964px;font-family:mwa_cmr10;color-interpolation:linearRGB;fill:#262626;stroke:#262626;color-rendering:optimizeQuality;image-rendering:optimizeQuality;text-rendering:geometricPrecision"
       id="g205">
      <path
         style="stroke:none"
         d="M -6.0261,3.2 V 2.8562 q 0,-0.0312 0.0313,-0.0781 l 2.0156,-2.2344 q 0.4688,-0.5 0.75,-0.8359 0.2813,-0.336 0.5625,-0.7735 0.2813,-0.4375 0.4453,-0.8906 0.1641,-0.4531 0.1641,-0.9531 0,-0.5313 -0.2031,-1.0235 -0.2032,-0.4921 -0.5938,-0.7812 -0.3906,-0.2891 -0.9375,-0.2891 -0.5625,0 -1.0156,0.3438 -0.4531,0.3437 -0.6406,0.875 0.0625,-0.0156 0.1406,-0.0156 0.2969,0 0.5,0.1953 0.2031,0.1953 0.2031,0.5078 0,0.2969 -0.2031,0.5078 -0.2031,0.2109 -0.5,0.2109 -0.2969,0 -0.5078,-0.2109 -0.211,-0.2109 -0.211,-0.5078 0,-0.4844 0.1875,-0.9141 0.1875,-0.4297 0.5313,-0.7578 0.3437,-0.3281 0.7812,-0.5078 0.4375,-0.1797 0.9219,-0.1797 0.75,0 1.3906,0.3125 0.6407,0.3125 1.0157,0.8906 0.375,0.5782 0.375,1.3438 0,0.5625 -0.25,1.0703 -0.25,0.5078 -0.6328,0.9219 -0.3829,0.414 -0.9922,0.9453 -0.6094,0.5312 -0.7969,0.7031 l -1.4688,1.4219 h 1.25 q 0.9219,0 1.5391,-0.0156 0.6172,-0.0157 0.6484,-0.0625 0.1563,-0.1563 0.3125,-1.1875 h 0.3907 L -1.1979,3.2 Z"
         id="path203"
         inkscape:connector-curvature="0" />
    </g>
    <g
       style="color-interpolation:sRGB;fill:#00ff00;fill-opacity:0.2;stroke:#00ff00;stroke-opacity:0.2;color-rendering:optimizeSpeed;image-rendering:optimizeSpeed;shape-rendering:crispEdges;text-rendering:optimizeSpeed"
       id="g209">
      <path
         style="stroke:none"
         d="m 1328.375,523.25 -40.75,224.125 163,-264.875 z"
         id="path207"
         inkscape:connector-curvature="0" />
    </g>
    <g
       style="color-interpolation:linearRGB;stroke-width:1.33329999;color-rendering:optimizeQuality;image-rendering:optimizeQuality;text-rendering:geometricPrecision"
       id="g213">
      <path
         d="m 1328.375,523.25 -40.75,224.125 163,-264.875 -122.25,40.75 v 0"
         style="fill:none;fill-rule:evenodd"
         id="path211"
         inkscape:connector-curvature="0" />
    </g>
    <g
       style="color-interpolation:linearRGB;fill:#ff0000;stroke:#ff0000;stroke-width:4;stroke-linecap:butt;stroke-linejoin:round;color-rendering:optimizeQuality;image-rendering:optimizeQuality;text-rendering:geometricPrecision"
       id="g217">
      <path
         d="m 1325.6453,538.2633 12.4065,-8.1706 13.4524,-8.3718 11.7955,-6.7943 9.6971,-5.0702 4.6051,-2.1957 4.3424,-1.9143 4.2311,-1.69 2.0094,-0.7311 1.9385,-0.6553 2.0196,-0.6241 1.9364,-0.5351 1.8536,-0.4461 1.7702,-0.3571 1.3775,-0.2247 1.3226,-0.1659 1.2677,-0.1071 0.6133,-0.0316 0.5996,-0.0168 0.7262,-5e-4 0.7051,0.0223 0.6838,0.0449 0.6626,0.0676 0.6415,0.0904 0.6202,0.113 0.5991,0.1357 0.5779,0.1584 0.4441,0.1421 0.4307,0.1564 0.4173,0.1707 0.4038,0.185 0.3907,0.1994 0.3772,0.2137 0.3637,0.228 0.3505,0.2423 0.3666,0.2804 0.3507,0.2973 0.3348,0.3144 0.319,0.3314 0.303,0.3483 0.2872,0.3654 0.2714,0.3824 0.2555,0.3994 0.2564,0.4475 0.2382,0.4671 0.22,0.4866 0.2016,0.5063 0.1834,0.5259 0.1651,0.5454 0.1468,0.5651 0.1285,0.5846 0.053,0.2781 0.05,0.2822 0.046,0.2866 0.042,0.2907 0.019,0.147 0.018,0.148 0.017,0.149 0.016,0.1502 0.015,0.1511 0.014,0.1523 0.013,0.1533 0.013,0.1543 0.011,0.1554 0.011,0.1564 0.01,0.1575 0.01,0.1586 0.01,0.1596 0.01,0.1607 0.01,0.1618 v 0.1627 0.1639 0.1649 0.1659 l 6e-4,0.167 -4e-4,0.1681 v 0.1691 0.1702 0.1712 0.1862 l -0.01,0.1875 -0.01,0.1886 -0.01,0.1899 -0.01,0.1912 -0.01,0.1923 -0.012,0.1936 -0.013,0.1948 -0.014,0.1961 -0.015,0.1972 -0.016,0.1986 -0.017,0.1998 -0.019,0.2009 -0.02,0.2022 -0.021,0.2035 -0.022,0.2047 -0.047,0.413 -0.052,0.418 -0.056,0.423 -0.061,0.4278 -0.136,0.8704 -0.1544,0.8902 -0.1864,0.978 -0.2076,1.0007 -0.4789,2.0697 -0.5637,2.1606 -0.6486,2.2516 -1.2026,3.757 -1.4162,3.9858 -2.0035,5.1398 -2.3175,5.4762 -4.749,10.2653 -6.527,12.8682 -6.9093,12.6911 -8.2728,14.3937 -9.5294,15.8435 -10.5413,16.8775 -11.6271,18.0377 -13.2497,19.9997 -13.2848,19.5935 -16.1464,23.3288 -14.7543,20.9423"
         style="fill:none;fill-rule:evenodd"
         id="path215"
         inkscape:connector-curvature="0" />
    </g>
    <g
       style="color-interpolation:sRGB;fill:#0000ff;fill-opacity:0.2;stroke:#0000ff;stroke-opacity:0.2;color-rendering:optimizeSpeed;image-rendering:optimizeSpeed;shape-rendering:crispEdges;text-rendering:optimizeSpeed"
       id="g221">
      <path
         style="stroke:none"
         d="m 1529.3953,538.2633 -35.2928,194.1011 231.5857,-326.2708 z"
         id="path219"
         inkscape:connector-curvature="0" />
    </g>
    <g
       style="color-interpolation:linearRGB;stroke-width:1.33329999;color-rendering:optimizeQuality;image-rendering:optimizeQuality;text-rendering:geometricPrecision"
       id="g225">
      <path
         d="m 1529.3953,538.2633 -35.2928,194.1011 231.5857,-326.2708 -196.2929,132.1697 v 0"
         style="fill:none;fill-rule:evenodd"
         id="path223"
         inkscape:connector-curvature="0" />
    </g>
    <g
       style="color-interpolation:linearRGB;fill:#ff0000;stroke:#ff0000;stroke-width:4;stroke-linecap:butt;stroke-linejoin:round;color-rendering:optimizeQuality;image-rendering:optimizeQuality;text-rendering:geometricPrecision"
       id="g229">
      <path
         d="m 1529.3953,538.2633 12.4065,-8.1706 13.4522,-8.3718 11.7957,-6.7943 9.6971,-5.0702 4.6051,-2.1957 4.3424,-1.9143 4.2312,-1.69 2.0093,-0.7311 1.9385,-0.6553 2.0196,-0.6241 1.9364,-0.5351 1.8536,-0.4461 1.7702,-0.3571 1.3775,-0.2247 1.3226,-0.1659 1.2677,-0.1071 0.6133,-0.0316 0.5996,-0.0168 0.7262,-5e-4 0.7051,0.0223 0.6838,0.0449 0.6626,0.0676 0.6415,0.0904 0.6202,0.113 0.5991,0.1357 0.5779,0.1584 0.4441,0.1421 0.4307,0.1564 0.4172,0.1707 0.4039,0.185 0.3907,0.1994 0.3772,0.2137 0.3637,0.228 0.3505,0.2423 0.3666,0.2804 0.3507,0.2973 0.3348,0.3144 0.319,0.3314 0.3031,0.3483 0.2871,0.3654 0.2714,0.3824 0.2555,0.3994 0.2564,0.4475 0.2382,0.4671 0.22,0.4866 0.2016,0.5063 0.1834,0.5259 0.1651,0.5454 0.1468,0.5651 0.1285,0.5846 0.053,0.2781 0.05,0.2822 0.046,0.2866 0.042,0.2907 0.019,0.147 0.018,0.148 0.017,0.149 0.016,0.1502 0.015,0.1511 0.014,0.1523 0.013,0.1533 0.013,0.1543 0.011,0.1554 0.011,0.1564 0.01,0.1575 0.01,0.1586 0.01,0.1596 0.01,0.1607 0.01,0.1618 v 0.1627 0.1639 0.1649 0.1659 l 6e-4,0.167 -4e-4,0.1681 v 0.1691 0.1702 0.1712 0.1862 l -0.01,0.1875 -0.01,0.1886 -0.01,0.1899 -0.01,0.1912 -0.01,0.1923 -0.012,0.1936 -0.013,0.1948 -0.014,0.1961 -0.015,0.1972 -0.016,0.1986 -0.017,0.1998 -0.019,0.2009 -0.02,0.2022 -0.021,0.2035 -0.022,0.2047 -0.047,0.413 -0.052,0.418 -0.056,0.423 -0.061,0.4278 -0.136,0.8704 -0.1544,0.8902 -0.1864,0.978 -0.2076,1.0007 -0.4789,2.0697 -0.5637,2.1606 -0.6486,2.2516 -1.2026,3.757 -1.4162,3.9858 -2.0035,5.1398 -2.3175,5.4762 -4.749,10.2653 -6.527,12.8682 -6.9092,12.6911 -8.2729,14.3937 -9.5294,15.8435 -10.5414,16.8775 -11.627,18.0377 -13.2497,19.9997 -13.2848,19.5935 -16.1464,23.3288 -14.7543,20.9423"
         style="fill:none;fill-rule:evenodd"
         id="path227"
         inkscape:connector-curvature="0" />
    </g>
  </g>
  <g
     id="g1443"
     ns1:jacobian_sqrt="2.450283"
     inkscapeversion="0.92.4"
     ns1:alignment="middle center"
     ns1:scale="1.83771218443"
     ns1:preamble="/home/jtorde/.config/inkscape/extensions/textext/default_packages.tex"
     ns1:text="\\textbf{MINVO}"
     ns1:pdfconverter="pdf2svg"
     ns1:texconverter="pdflatex"
     ns1:version="0.11.0"
     transform="matrix(2.2262357,0,0,2.2262357,-275.20497,-249.12141)">
    <g
       id="surface1">
      <g
         id="g1436"
         style="fill:#000000;fill-opacity:1">
        <path
           id="path1428"
           transform="translate(148.712,134.765)"
           d="M 5.4375,-1.3125 3.046875,-6.59375 c -0.109375,-0.25 -0.21875,-0.25 -0.4375,-0.25 H 0.40625 V -6.375 h 1.0625 v 5.625 c 0,0.21875 0,0.21875 -0.28125,0.25 -0.234375,0.03125 -0.265625,0.03125 -0.546875,0.03125 H 0.40625 V 0 c 0.375,-0.03125 0.9375,-0.03125 1.328125,-0.03125 0.421875,0 0.9375,0 1.34375,0.03125 v -0.46875 h -0.25 C 2.65625,-0.46875 2.484375,-0.484375 2.296875,-0.5 2.015625,-0.53125 2,-0.53125 2,-0.75 V -6.234375 H 2.015625 L 4.71875,-0.25 C 4.8125,-0.046875 4.9375,0 5.046875,0 5.25,0 5.328125,-0.15625 5.359375,-0.234375 L 8.140625,-6.375 H 8.15625 v 5.90625 H 7.078125 V 0 c 0.359375,-0.03125 1.28125,-0.03125 1.6875,-0.03125 0.421875,0 1.359375,0 1.71875,0.03125 V -0.46875 H 9.40625 V -6.375 h 1.078125 V -6.84375 H 8.28125 c -0.21875,0 -0.34375,0 -0.453125,0.25 z m 0,0"
           style="stroke:none;stroke-width:0"
           inkscape:connector-curvature="0" />
        <path
           id="path1430"
           transform="translate(159.58817,134.765)"
           d="M 2.875,-6.375 H 4.015625 V -6.84375 C 3.609375,-6.8125 2.625,-6.8125 2.171875,-6.8125 c -0.453125,0 -1.4375,0 -1.84375,-0.03125 V -6.375 H 1.46875 v 5.90625 H 0.328125 V 0 c 0.40625,-0.03125 1.390625,-0.03125 1.84375,-0.03125 0.453125,0 1.4375,0 1.84375,0.03125 V -0.46875 H 2.875 Z m 0,0"
           style="stroke:none;stroke-width:0"
           inkscape:connector-curvature="0" />
        <path
           id="path1432"
           transform="translate(163.93286,134.765)"
           d="M 3,-6.703125 C 2.890625,-6.828125 2.875,-6.84375 2.671875,-6.84375 H 0.390625 V -6.375 H 1.46875 v 5.625 c 0,0.21875 -0.015625,0.21875 -0.296875,0.25 -0.234375,0.03125 -0.25,0.03125 -0.53125,0.03125 h -0.25 V 0 c 0.375,-0.03125 0.9375,-0.03125 1.328125,-0.03125 0.421875,0 0.9375,0 1.359375,0.03125 v -0.46875 h -0.25 C 2.640625,-0.46875 2.46875,-0.484375 2.296875,-0.5 2,-0.53125 2,-0.53125 2,-0.75 V -5.96875 L 6.953125,-0.125 C 7.0625,-0.015625 7.0625,0 7.234375,0 7.5,0 7.5,-0.09375 7.5,-0.3125 V -6.078125 C 7.5,-6.296875 7.5,-6.3125 7.78125,-6.34375 8.03125,-6.375 8.046875,-6.375 8.328125,-6.375 h 0.25 V -6.84375 C 8.1875,-6.8125 7.625,-6.8125 7.234375,-6.8125 c -0.421875,0 -0.9375,0 -1.34375,-0.03125 V -6.375 h 0.25 c 0.171875,0 0.34375,0.015625 0.53125,0.03125 0.28125,0.03125 0.296875,0.046875 0.296875,0.265625 v 4.03125 z m 0,0"
           style="stroke:none;stroke-width:0"
           inkscape:connector-curvature="0" />
        <path
           id="path1434"
           transform="translate(172.8992,134.765)"
           d="M 7.375,-6.15625 C 7.4375,-6.28125 7.484375,-6.375 8.203125,-6.375 h 0.1875 v -0.46875 c -0.375,0.015625 -0.859375,0.03125 -1.125,0.03125 -0.390625,0 -0.921875,0 -1.296875,-0.03125 V -6.375 c 0.078125,0 0.875,0 0.875,0.125 0,0.046875 -0.03125,0.09375 -0.046875,0.125 L 4.78125,-1.59375 2.65625,-6.375 h 0.9375 v -0.46875 c -0.375,0.03125 -1.328125,0.03125 -1.765625,0.03125 -0.375,0 -1.21875,0 -1.5625,-0.03125 V -6.375 h 0.90625 l 2.75,6.203125 c 0.078125,0.171875 0.125,0.25 0.40625,0.25 0.15625,0 0.28125,0 0.390625,-0.234375 z m 0,0"
           style="stroke:none;stroke-width:0"
           inkscape:connector-curvature="0" />
      </g>
      <g
         id="g1440"
         style="fill:#000000;fill-opacity:1">
        <path
           id="path1438"
           transform="translate(181.24188,134.765)"
           d="m 7.96875,-3.375 c 0,-2.15625 -1.453125,-3.578125 -3.65625,-3.578125 -2.28125,0 -3.671875,1.484375 -3.671875,3.578125 0,2.0625 1.390625,3.484375 3.65625,3.484375 2.296875,0 3.671875,-1.4375 3.671875,-3.484375 z m -3.671875,3.0625 c -0.59375,0 -1.3125,-0.28125 -1.71875,-1.03125 C 2.25,-1.96875 2.15625,-2.671875 2.15625,-3.53125 c 0,-0.640625 0.03125,-1.484375 0.46875,-2.15625 0.421875,-0.609375 1.078125,-0.859375 1.671875,-0.859375 0.640625,0 1.328125,0.28125 1.71875,0.9375 0.390625,0.640625 0.421875,1.40625 0.421875,2.078125 0,0.703125 -0.03125,1.59375 -0.453125,2.28125 -0.453125,0.71875 -1.15625,0.9375 -1.6875,0.9375 z m 0,0"
           style="stroke:none;stroke-width:0"
           inkscape:connector-curvature="0" />
      </g>
    </g>
  </g>
  <g
     id="g1616"
     ns1:jacobian_sqrt="1.669677"
     inkscapeversion="0.92.4"
     ns1:alignment="middle center"
     ns1:scale="1.25225755532"
     ns1:preamble="/home/jtorde/.config/inkscape/extensions/textext/default_packages.tex"
     ns1:text="\\textbf{Bernstein}"
     ns1:pdfconverter="pdf2svg"
     ns1:texconverter="pdflatex"
     ns1:version="0.11.0"
     transform="matrix(2.2262359,0,0,2.2262359,-58.658621,-259.33323)">
    <g
       id="g1614">
      <g
         id="g1612"
         style="fill:#000000;fill-opacity:1">
        <path
           id="path1594"
           transform="translate(148.712,134.765)"
           d="M 2.765625,-3.734375 V -6.375 h 1.8125 c 1.015625,0 1.1875,0.796875 1.1875,1.25 0,0.765625 -0.46875,1.390625 -1.4375,1.390625 z M 5.46875,-3.5625 C 6.546875,-3.765625 7.1875,-4.359375 7.1875,-5.125 c 0,-0.921875 -0.875,-1.71875 -2.46875,-1.71875 H 0.390625 V -6.375 H 1.46875 v 5.90625 H 0.390625 V 0 h 4.625 C 6.671875,0 7.5,-0.875 7.5,-1.859375 7.5,-2.8125 6.65625,-3.484375 5.46875,-3.5625 Z M 4.609375,-0.46875 H 2.765625 V -3.375 h 1.9375 c 0.203125,0 0.671875,0 1.015625,0.421875 0.328125,0.421875 0.328125,0.984375 0.328125,1.09375 0,0.109375 0,1.390625 -1.4375,1.390625 z m 0,0"
           style="stroke:none;stroke-width:0"
           inkscape:connector-curvature="0" />
        <path
           id="path1596"
           transform="translate(156.8624,134.765)"
           d="m 4.609375,-2.171875 c 0.21875,0 0.3125,0 0.3125,-0.265625 0,-0.3125 -0.0625,-1.046875 -0.5625,-1.546875 C 4,-4.34375 3.46875,-4.515625 2.78125,-4.515625 c -1.59375,0 -2.46875,1.03125 -2.46875,2.265625 0,1.34375 1,2.3125 2.609375,2.3125 1.578125,0 2,-1.0625 2,-1.234375 0,-0.171875 -0.1875,-0.171875 -0.234375,-0.171875 -0.171875,0 -0.1875,0.046875 -0.25,0.203125 -0.203125,0.484375 -0.78125,0.796875 -1.421875,0.796875 -1.40625,0 -1.421875,-1.328125 -1.421875,-1.828125 z M 1.59375,-2.5 C 1.609375,-2.890625 1.625,-3.3125 1.828125,-3.640625 2.09375,-4.03125 2.5,-4.15625 2.78125,-4.15625 c 1.171875,0 1.1875,1.3125 1.203125,1.65625 z m 0,0"
           style="stroke:none;stroke-width:0"
           inkscape:connector-curvature="0" />
        <path
           id="path1598"
           transform="translate(162.11369,134.765)"
           d="m 2.03125,-3.359375 v -1.125 L 0.375,-4.40625 v 0.46875 c 0.609375,0 0.6875,0 0.6875,0.390625 V -0.46875 H 0.375 V 0 c 0.34375,-0.015625 0.796875,-0.03125 1.25,-0.03125 0.375,0 1.015625,0 1.375,0.03125 V -0.46875 H 2.140625 v -1.75 c 0,-0.6875 0.234375,-1.90625 1.234375,-1.90625 0,0.015625 -0.1875,0.171875 -0.1875,0.453125 0,0.40625 0.328125,0.609375 0.609375,0.609375 0.296875,0 0.609375,-0.203125 0.609375,-0.609375 0,-0.53125 -0.53125,-0.8125 -1.0625,-0.8125 -0.6875,0 -1.09375,0.5 -1.3125,1.125 z m 0,0"
           style="stroke:none;stroke-width:0"
           inkscape:connector-curvature="0" />
        <path
           id="path1600"
           transform="translate(166.83198,134.765)"
           d="m 1.140625,-3.546875 v 3.078125 h -0.6875 V 0 c 0.28125,-0.015625 0.875,-0.03125 1.25,-0.03125 0.390625,0 0.984375,0.015625 1.25,0.03125 v -0.46875 h -0.6875 v -2.078125 c 0,-1.09375 0.859375,-1.578125 1.5,-1.578125 0.328125,0 0.546875,0.203125 0.546875,0.96875 v 2.6875 H 3.625 V 0 c 0.265625,-0.015625 0.875,-0.03125 1.25,-0.03125 0.390625,0 0.984375,0.015625 1.25,0.03125 V -0.46875 H 5.4375 v -2.578125 c 0,-1.046875 -0.53125,-1.4375 -1.53125,-1.4375 -0.953125,0 -1.484375,0.5625 -1.75,1.078125 V -4.484375 L 0.453125,-4.40625 v 0.46875 c 0.609375,0 0.6875,0 0.6875,0.390625 z m 0,0"
           style="stroke:none;stroke-width:0"
           inkscape:connector-curvature="0" />
        <path
           id="path1602"
           transform="translate(173.19708,134.765)"
           d="M 2.109375,-2.9375 C 1.734375,-3 1.09375,-3.109375 1.09375,-3.578125 c 0,-0.625 0.921875,-0.625 1.109375,-0.625 0.75,0 1.125,0.296875 1.171875,0.84375 0.015625,0.15625 0.03125,0.203125 0.234375,0.203125 0.234375,0 0.234375,-0.046875 0.234375,-0.28125 v -0.796875 c 0,-0.1875 0,-0.28125 -0.171875,-0.28125 -0.046875,0 -0.0625,0 -0.453125,0.1875 -0.265625,-0.125 -0.609375,-0.1875 -1,-0.1875 -0.3125,0 -1.84375,0 -1.84375,1.3125 0,0.390625 0.203125,0.65625 0.40625,0.828125 0.390625,0.34375 0.78125,0.40625 1.546875,0.546875 0.359375,0.0625 1.09375,0.1875 1.09375,0.78125 0,0.75 -0.90625,0.75 -1.125,0.75 -1.0625,0 -1.3125,-0.734375 -1.4375,-1.15625 C 0.8125,-1.59375 0.75,-1.59375 0.625,-1.59375 c -0.25,0 -0.25,0.0625 -0.25,0.28125 v 1.09375 c 0,0.1875 0,0.28125 0.1875,0.28125 0.0625,0 0.078125,0 0.296875,-0.15625 0.015625,0 0.234375,-0.140625 0.25,-0.171875 0.46875,0.328125 0.984375,0.328125 1.1875,0.328125 0.3125,0 1.84375,0 1.84375,-1.453125 0,-0.4375 -0.203125,-0.78125 -0.546875,-1.0625 C 3.203125,-2.734375 2.875,-2.796875 2.109375,-2.9375 Z m 0,0"
           style="stroke:none;stroke-width:0"
           inkscape:connector-curvature="0" />
        <path
           id="path1604"
           transform="translate(177.71612,134.765)"
           d="m 1.03125,-3.953125 v 2.734375 c 0,1.0625 0.859375,1.28125 1.578125,1.28125 0.75,0 1.203125,-0.578125 1.203125,-1.296875 v -0.53125 H 3.34375 V -1.25 c 0,0.671875 -0.328125,0.90625 -0.609375,0.90625 -0.578125,0 -0.578125,-0.640625 -0.578125,-0.859375 v -2.75 H 3.625 v -0.46875 H 2.15625 v -1.90625 H 1.6875 c 0,1 -0.484375,1.984375 -1.484375,2.015625 v 0.359375 z m 0,0"
           style="stroke:none;stroke-width:0"
           inkscape:connector-curvature="0" />
        <path
           id="path1606"
           transform="translate(182.17139,134.765)"
           d="m 4.609375,-2.171875 c 0.21875,0 0.3125,0 0.3125,-0.265625 0,-0.3125 -0.0625,-1.046875 -0.5625,-1.546875 C 4,-4.34375 3.46875,-4.515625 2.78125,-4.515625 c -1.59375,0 -2.46875,1.03125 -2.46875,2.265625 0,1.34375 1,2.3125 2.609375,2.3125 1.578125,0 2,-1.0625 2,-1.234375 0,-0.171875 -0.1875,-0.171875 -0.234375,-0.171875 -0.171875,0 -0.1875,0.046875 -0.25,0.203125 -0.203125,0.484375 -0.78125,0.796875 -1.421875,0.796875 -1.40625,0 -1.421875,-1.328125 -1.421875,-1.828125 z M 1.59375,-2.5 C 1.609375,-2.890625 1.625,-3.3125 1.828125,-3.640625 2.09375,-4.03125 2.5,-4.15625 2.78125,-4.15625 c 1.171875,0 1.1875,1.3125 1.203125,1.65625 z m 0,0"
           style="stroke:none;stroke-width:0"
           inkscape:connector-curvature="0" />
        <path
           id="path1608"
           transform="translate(187.42268,134.765)"
           d="M 2.234375,-4.484375 0.5,-4.40625 v 0.46875 c 0.59375,0 0.65625,0 0.65625,0.390625 V -0.46875 H 0.46875 V 0 C 0.78125,-0.015625 1.265625,-0.03125 1.6875,-0.03125 1.984375,-0.03125 2.5,-0.015625 2.84375,0 V -0.46875 H 2.234375 Z m 0.09375,-1.671875 c 0,-0.4375 -0.359375,-0.765625 -0.765625,-0.765625 -0.4375,0 -0.78125,0.34375 -0.78125,0.765625 0,0.4375 0.34375,0.78125 0.78125,0.78125 0.40625,0 0.765625,-0.34375 0.765625,-0.78125 z m 0,0"
           style="stroke:none;stroke-width:0"
           inkscape:connector-curvature="0" />
        <path
           id="path1610"
           transform="translate(190.60473,134.765)"
           d="m 1.140625,-3.546875 v 3.078125 h -0.6875 V 0 c 0.28125,-0.015625 0.875,-0.03125 1.25,-0.03125 0.390625,0 0.984375,0.015625 1.25,0.03125 v -0.46875 h -0.6875 v -2.078125 c 0,-1.09375 0.859375,-1.578125 1.5,-1.578125 0.328125,0 0.546875,0.203125 0.546875,0.96875 v 2.6875 H 3.625 V 0 c 0.265625,-0.015625 0.875,-0.03125 1.25,-0.03125 0.390625,0 0.984375,0.015625 1.25,0.03125 V -0.46875 H 5.4375 v -2.578125 c 0,-1.046875 -0.53125,-1.4375 -1.53125,-1.4375 -0.953125,0 -1.484375,0.5625 -1.75,1.078125 V -4.484375 L 0.453125,-4.40625 v 0.46875 c 0.609375,0 0.6875,0 0.6875,0.390625 z m 0,0"
           style="stroke:none;stroke-width:0"
           inkscape:connector-curvature="0" />
      </g>
    </g>
  </g>
</svg>
